<?xml version="1.0" encoding="utf-8"?>
<!-- Generator: Adobe Illustrator 16.0.0, SVG Export Plug-In . SVG Version: 6.00 Build 0)  -->
<!DOCTYPE svg PUBLIC "-//W3C//DTD SVG 1.0//EN" "http://www.w3.org/TR/2001/REC-SVG-20010904/DTD/svg10.dtd">
<svg version="1.0" id="Layer_1" xmlns="http://www.w3.org/2000/svg" xmlns:xlink="http://www.w3.org/1999/xlink" x="0px" y="0px"
	 width="328.5px" height="291.5px" viewBox="0 0 328.5 291.5" enable-background="new 0 0 328.5 291.5" xml:space="preserve">
<g>
	<path fill="none" d="M244.945,51.493L82.164,241.074c21.943,19.046,50.566,30.588,81.836,30.588c68.926,0,125-56.074,125-125
		C289,108.587,271.883,74.439,244.945,51.493z"/>
	<path fill="none" d="M164,21.662c-68.926,0-125,56.075-125,125c0,37.297,16.426,70.825,42.416,93.748L244.182,50.847
		C222.463,32.641,194.491,21.662,164,21.662z"/>
	<path fill="#FFFFFF" d="M164,19.662c-70.027,0-127,56.972-127,127c0,70.027,56.973,127,127,127s127-56.973,127-127
		C291,76.634,234.027,19.662,164,19.662z M164,271.662c-31.27,0-59.893-11.542-81.836-30.588l-0.785,0.914l-0.758-0.652l0.795-0.926
		C55.426,217.487,39,183.959,39,146.662c0-68.925,56.074-125,125-125c30.491,0,58.463,10.979,80.182,29.185l0.439-0.511l0.758,0.651
		l-0.434,0.505C271.883,74.439,289,108.587,289,146.662C289,215.588,232.926,271.662,164,271.662z"/>
	<path fill="#FFFFFF" d="M244.182,50.847L81.416,240.41c0.25,0.221,0.496,0.445,0.748,0.664L244.945,51.493
		C244.691,51.277,244.438,51.061,244.182,50.847z"/>
	<path fill="#FFFFFF" d="M80.621,241.336l0.758,0.652l0.785-0.914c-0.252-0.219-0.498-0.443-0.748-0.664L80.621,241.336z"/>
	<path fill="#FFFFFF" d="M245.379,50.988l-0.758-0.651l-0.439,0.511c0.256,0.214,0.51,0.43,0.764,0.646L245.379,50.988z"/>
</g>
<g>
	<path fill="#FFFFFF" d="M115.816,143.82h25.723v-11.66c0-1.132-0.053-2.021-0.154-2.666c-0.105-0.645-0.354-1.132-0.746-1.465
		c-0.395-0.332-0.984-0.537-1.771-0.615c-0.787-0.078-1.863-0.117-3.23-0.117v-2.813c0.994,0.04,2.361,0.069,4.102,0.088
		c1.738,0.02,3.529,0.029,5.373,0.029s3.604-0.009,5.281-0.029c1.678-0.019,2.973-0.048,3.885-0.088v2.813
		c-1.367,0-2.436,0.049-3.201,0.146c-0.766,0.098-1.357,0.313-1.77,0.645c-0.416,0.333-0.674,0.82-0.777,1.465
		s-0.156,1.553-0.156,2.725v28.184c0,1.25,0.063,2.246,0.188,2.988c0.123,0.742,0.393,1.299,0.807,1.67s1.004,0.615,1.771,0.732
		c0.766,0.117,1.813,0.176,3.139,0.176v2.871c-0.912-0.039-2.207-0.078-3.885-0.117s-3.447-0.059-5.313-0.059
		c-1.863,0-3.656,0.02-5.373,0.059c-1.721,0.039-3.076,0.078-4.07,0.117v-2.871c1.324,0,2.381-0.068,3.168-0.205
		s1.377-0.4,1.771-0.791c0.393-0.391,0.652-0.938,0.777-1.641c0.123-0.703,0.186-1.641,0.186-2.813v-13.066h-25.723v13.066
		c0,1.211,0.051,2.168,0.154,2.871s0.352,1.25,0.746,1.641c0.393,0.391,0.984,0.645,1.771,0.762
		c0.785,0.117,1.842,0.176,3.168,0.176v2.813c-0.953-0.039-2.277-0.068-3.977-0.088s-3.469-0.029-5.313-0.029
		s-3.613,0.02-5.313,0.059s-3.043,0.078-4.037,0.117v-2.871c1.324,0,2.381-0.068,3.168-0.205s1.387-0.4,1.803-0.791
		c0.412-0.391,0.682-0.947,0.807-1.67s0.188-1.689,0.188-2.9v-27.949c0-1.21-0.063-2.158-0.188-2.842
		c-0.125-0.683-0.395-1.201-0.807-1.553c-0.416-0.352-1.016-0.576-1.803-0.674c-0.787-0.097-1.844-0.146-3.168-0.146v-2.871
		c0.951,0.079,2.277,0.127,3.977,0.146c1.697,0.02,3.469,0.029,5.311,0.029c1.844,0,3.625-0.009,5.344-0.029
		c1.719-0.019,3.055-0.068,4.008-0.146v2.871c-1.326,0-2.371,0.059-3.137,0.176c-0.768,0.117-1.348,0.342-1.74,0.674
		c-0.395,0.333-0.652,0.831-0.777,1.494c-0.123,0.665-0.186,1.563-0.186,2.695V143.82z"/>
	<path fill="#FFFFFF" d="M169.561,150.5v10.02c0,1.25,0.063,2.236,0.188,2.959c0.123,0.723,0.383,1.27,0.775,1.641
		c0.395,0.371,0.984,0.615,1.771,0.732s1.842,0.176,3.168,0.176v2.754c-1.242-0.039-2.67-0.059-4.287-0.059
		c-1.615,0-3.271,0-4.971,0c-1.697,0-3.375,0.01-5.031,0.029c-1.658,0.02-3.129,0.049-4.412,0.088v-2.813
		c1.324,0,2.381-0.059,3.168-0.176s1.389-0.361,1.803-0.732s0.684-0.928,0.809-1.67c0.123-0.742,0.186-1.758,0.186-3.047v-28.125
		c0-1.172-0.053-2.089-0.156-2.754c-0.104-0.664-0.352-1.162-0.744-1.494c-0.395-0.332-0.975-0.537-1.74-0.615
		c-0.768-0.078-1.813-0.117-3.139-0.117v-2.695c1.078,0.04,2.361,0.059,3.854,0.059c1.49,0,3.014,0,4.566,0s3.033-0.009,4.443-0.029
		c1.406-0.019,2.547-0.048,3.416-0.088c2.443,0,4.682,0.313,6.711,0.938c2.029,0.625,3.77,1.494,5.219,2.607
		s2.578,2.461,3.387,4.043c0.807,1.582,1.211,3.331,1.211,5.244c0,1.915-0.373,3.653-1.117,5.215
		c-0.746,1.563-1.762,2.92-3.045,4.072c-1.285,1.152-2.787,2.051-4.506,2.695s-3.531,1.006-5.436,1.084
		c-0.869,0.039-1.855,0.059-2.951,0.059C171.602,150.5,170.555,150.5,169.561,150.5z M169.561,146.984
		c0.746,0.078,1.605,0.137,2.58,0.176c0.973,0.039,1.811,0.039,2.516,0c2.318-0.078,4.203-0.918,5.654-2.52
		c1.449-1.601,2.174-3.867,2.174-6.797c0-1.758-0.289-3.271-0.869-4.541c-0.58-1.269-1.357-2.314-2.33-3.135
		c-0.975-0.82-2.082-1.436-3.324-1.846s-2.527-0.615-3.852-0.615c-0.416,0-0.924,0.02-1.523,0.059
		c-0.6,0.04-0.941,0.079-1.025,0.117V146.984z"/>
	<path fill="#FFFFFF" d="M204.791,150.5v10.02c0,1.25,0.063,2.236,0.186,2.959c0.125,0.723,0.383,1.27,0.777,1.641
		c0.393,0.371,0.982,0.615,1.771,0.732c0.785,0.117,1.842,0.176,3.168,0.176v2.754c-1.242-0.039-2.672-0.059-4.287-0.059
		s-3.273,0-4.971,0c-1.699,0-3.377,0.01-5.033,0.029s-3.127,0.049-4.412,0.088v-2.813c1.326,0,2.383-0.059,3.17-0.176
		s1.387-0.361,1.801-0.732s0.684-0.928,0.809-1.67s0.186-1.758,0.186-3.047v-28.125c0-1.172-0.051-2.089-0.154-2.754
		c-0.104-0.664-0.354-1.162-0.746-1.494c-0.395-0.332-0.973-0.537-1.74-0.615c-0.766-0.078-1.813-0.117-3.137-0.117v-2.695
		c1.076,0.04,2.361,0.059,3.852,0.059c1.492,0,3.014,0,4.566,0c1.555,0,3.035-0.009,4.443-0.029
		c1.408-0.019,2.547-0.048,3.418-0.088c2.443,0,4.68,0.313,6.709,0.938c2.029,0.625,3.77,1.494,5.221,2.607
		c1.449,1.113,2.578,2.461,3.385,4.043c0.809,1.582,1.213,3.331,1.213,5.244c0,1.915-0.373,3.653-1.119,5.215
		c-0.746,1.563-1.762,2.92-3.045,4.072c-1.283,1.152-2.785,2.051-4.504,2.695s-3.531,1.006-5.438,1.084
		c-0.869,0.039-1.854,0.059-2.951,0.059S205.785,150.5,204.791,150.5z M204.791,146.984c0.746,0.078,1.604,0.137,2.578,0.176
		c0.973,0.039,1.813,0.039,2.516,0c2.32-0.078,4.205-0.918,5.654-2.52c1.449-1.601,2.176-3.867,2.176-6.797
		c0-1.758-0.291-3.271-0.871-4.541c-0.58-1.269-1.357-2.314-2.33-3.135s-2.08-1.436-3.324-1.846
		c-1.242-0.41-2.525-0.615-3.852-0.615c-0.414,0-0.922,0.02-1.521,0.059c-0.602,0.04-0.943,0.079-1.025,0.117V146.984z"/>
</g>
</svg>
