<?xml version="1.0" encoding="utf-8"?>
<!-- Generator: Adobe Illustrator 16.0.0, SVG Export Plug-In . SVG Version: 6.00 Build 0)  -->
<!DOCTYPE svg PUBLIC "-//W3C//DTD SVG 1.0//EN" "http://www.w3.org/TR/2001/REC-SVG-20010904/DTD/svg10.dtd">
<svg version="1.0" id="Layer_1" xmlns="http://www.w3.org/2000/svg" xmlns:xlink="http://www.w3.org/1999/xlink" x="0px" y="0px"
	 width="328.5px" height="291.5px" viewBox="0 0 328.5 291.5" enable-background="new 0 0 328.5 291.5" xml:space="preserve">
<g>
	<path fill="none" d="M245.945,52.108L83.164,241.689c21.943,19.046,50.567,30.588,81.836,30.588c68.926,0,125-56.074,125-125
		C290,109.202,272.883,75.054,245.945,52.108z"/>
	<path fill="none" d="M165,22.277c-68.925,0-125,56.075-125,125c0,37.297,16.425,70.825,42.416,93.748L245.182,51.462
		C223.463,33.257,195.491,22.277,165,22.277z"/>
	<path fill="#FFFFFF" d="M165,20.277c-70.028,0-127,56.972-127,127c0,70.027,56.972,127,127,127c70.027,0,127-56.973,127-127
		C292,77.249,235.027,20.277,165,20.277z M165,272.277c-31.269,0-59.893-11.542-81.836-30.588l-0.785,0.914l-0.759-0.652
		l0.795-0.926C56.425,218.102,40,184.574,40,147.277c0-68.925,56.075-125,125-125c30.491,0,58.463,10.979,80.182,29.185l0.439-0.511
		l0.758,0.651l-0.434,0.505C272.883,75.054,290,109.202,290,147.277C290,216.203,233.926,272.277,165,272.277z"/>
	<path fill="#FFFFFF" d="M245.182,51.462L82.416,241.025c0.25,0.221,0.497,0.445,0.749,0.664L245.945,52.108
		C245.691,51.892,245.438,51.677,245.182,51.462z"/>
	<path fill="#FFFFFF" d="M81.621,241.951l0.759,0.652l0.785-0.914c-0.252-0.219-0.499-0.443-0.749-0.664L81.621,241.951z"/>
	<path fill="#FFFFFF" d="M246.379,51.603l-0.758-0.651l-0.439,0.511c0.256,0.214,0.51,0.43,0.764,0.646L246.379,51.603z"/>
</g>
<g>
	<path fill="#FFFFFF" d="M61.172,149.808v6.928c0,0.865,0.043,1.547,0.128,2.046c0.086,0.5,0.265,0.878,0.537,1.134
		c0.271,0.258,0.68,0.426,1.225,0.507c0.544,0.081,1.273,0.122,2.19,0.122v1.903c-0.859-0.026-1.847-0.04-2.964-0.04
		c-1.116,0-2.262,0-3.437,0s-2.334,0.006-3.479,0.02c-1.146,0.014-2.163,0.033-3.05,0.061v-1.943c0.916,0,1.646-0.041,2.191-0.122
		c0.544-0.081,0.959-0.249,1.246-0.507c0.285-0.256,0.472-0.641,0.559-1.154c0.085-0.513,0.128-1.215,0.128-2.106v-19.444
		c0-0.811-0.036-1.445-0.107-1.904c-0.072-0.458-0.244-0.803-0.516-1.033c-0.272-0.229-0.673-0.371-1.203-0.426
		c-0.53-0.053-1.253-0.081-2.169-0.081v-1.863c0.744,0.027,1.632,0.04,2.663,0.04s2.083,0,3.157,0c1.074,0,2.098-0.006,3.072-0.02
		c0.973-0.013,1.761-0.033,2.362-0.061c1.69,0,3.237,0.216,4.64,0.648c1.403,0.432,2.605,1.033,3.608,1.803
		c1.002,0.77,1.783,1.701,2.341,2.794c0.559,1.094,0.838,2.303,0.838,3.626c0,1.324-0.258,2.525-0.773,3.605
		c-0.516,1.081-1.218,2.019-2.104,2.816c-0.889,0.797-1.927,1.418-3.115,1.863c-1.188,0.445-2.441,0.695-3.758,0.75
		c-0.602,0.027-1.282,0.039-2.041,0.039C62.583,149.808,61.86,149.808,61.172,149.808z M61.172,147.379
		c0.516,0.055,1.109,0.095,1.783,0.121c0.672,0.027,1.252,0.027,1.74,0c1.603-0.053,2.906-0.634,3.909-1.742
		c1.002-1.107,1.504-2.674,1.504-4.7c0-1.215-0.201-2.261-0.601-3.139c-0.402-0.877-0.939-1.6-1.611-2.167
		c-0.673-0.567-1.439-0.993-2.298-1.275c-0.859-0.284-1.747-0.426-2.663-0.426c-0.287,0-0.638,0.014-1.053,0.041
		c-0.416,0.027-0.652,0.054-0.708,0.081V147.379z"/>
	<path fill="#FFFFFF" d="M84.283,145.758c0.458-0.621,0.86-1.127,1.203-1.519c0.344-0.392,0.708-0.736,1.095-1.033
		c0.387-0.296,0.845-0.547,1.375-0.749c0.53-0.203,1.053-0.304,1.568-0.304c0.344,0,0.709,0.054,1.096,0.162
		c0.387,0.108,0.737,0.271,1.052,0.486c0.315,0.216,0.58,0.493,0.794,0.83c0.216,0.338,0.323,0.736,0.323,1.195
		c0,0.675-0.287,1.255-0.86,1.742c-0.573,0.486-1.217,0.729-1.933,0.729c-0.516,0-0.931-0.054-1.246-0.163
		c-0.316-0.107-0.58-0.229-0.795-0.364c-0.214-0.135-0.394-0.256-0.537-0.365c-0.144-0.108-0.3-0.162-0.472-0.162
		c-0.23,0-0.494,0.081-0.795,0.243c-0.301,0.163-0.587,0.386-0.859,0.669c-0.273,0.283-0.509,0.635-0.709,1.053
		c-0.201,0.42-0.301,0.871-0.301,1.357v8.305c0,0.621,0.036,1.107,0.108,1.458c0.071,0.352,0.264,0.622,0.58,0.81
		c0.315,0.189,0.788,0.305,1.418,0.346c0.63,0.039,1.489,0.061,2.578,0.061v1.984c-0.746-0.027-1.675-0.055-2.792-0.081
		s-2.27-0.04-3.458-0.04c-1.188,0-2.349,0.006-3.479,0.02c-1.131,0.014-2.083,0.047-2.856,0.102v-1.984
		c0.801,0,1.432-0.021,1.89-0.061c0.458-0.041,0.802-0.143,1.032-0.305c0.229-0.162,0.364-0.426,0.408-0.79
		c0.043-0.364,0.064-0.87,0.064-1.519v-9.277c0-0.647-0.015-1.16-0.043-1.539c-0.028-0.378-0.129-0.668-0.301-0.871
		c-0.171-0.203-0.422-0.325-0.751-0.365c-0.33-0.041-0.795-0.061-1.396-0.061v-1.621c1.031-0.135,1.933-0.344,2.707-0.628
		c0.772-0.283,1.503-0.722,2.19-1.316h2.363c-0.029,0.351-0.058,0.696-0.086,1.033c-0.029,0.337-0.058,0.682-0.086,1.033
		c-0.029,0.352-0.05,0.655-0.064,0.911C84.29,145.428,84.283,145.623,84.283,145.758z"/>
	<path fill="#FFFFFF" d="M110.401,150.7H98.416v0.771c0,0.242,0,0.513,0,0.81c0,0.298,0.014,0.636,0.043,1.013
		c0.057,0.973,0.236,1.863,0.537,2.674s0.694,1.513,1.181,2.106c0.487,0.595,1.066,1.061,1.74,1.397
		c0.672,0.338,1.425,0.507,2.255,0.507c1.145,0,2.184-0.276,3.114-0.831c0.931-0.553,1.854-1.343,2.771-2.369l1.934,1.135
		c-0.917,1.512-2.105,2.754-3.566,3.727c-1.46,0.972-3.151,1.458-5.068,1.458c-1.346,0-2.593-0.257-3.738-0.77
		s-2.133-1.216-2.964-2.106c-0.831-0.892-1.482-1.932-1.955-3.119c-0.473-1.188-0.708-2.457-0.708-3.809
		c0-1.729,0.235-3.281,0.708-4.658c0.473-1.377,1.138-2.545,1.998-3.504c0.858-0.958,1.868-1.694,3.028-2.208
		c1.159-0.513,2.427-0.77,3.801-0.77c0.945,0,1.897,0.148,2.857,0.445c0.958,0.298,1.81,0.737,2.556,1.317
		c0.745,0.58,1.359,1.316,1.847,2.208c0.486,0.891,0.73,1.932,0.73,3.119c0,0.541-0.036,0.918-0.107,1.135
		C111.339,150.593,111.003,150.7,110.401,150.7z M98.76,148.512h7.474c0.344,0,0.537-0.026,0.581-0.081
		c0.042-0.053,0.064-0.229,0.064-0.526c0-0.405-0.08-0.816-0.236-1.236c-0.158-0.418-0.395-0.803-0.709-1.154
		c-0.315-0.351-0.694-0.634-1.139-0.851c-0.444-0.216-0.938-0.324-1.482-0.324c-1.288,0-2.313,0.392-3.071,1.175
		C99.482,146.298,98.988,147.298,98.76,148.512z"/>
	<path fill="#FFFFFF" d="M113.666,155.885h2.535c0.115,0.675,0.28,1.323,0.494,1.944c0.214,0.622,0.494,1.162,0.838,1.621
		s0.765,0.83,1.267,1.113c0.501,0.283,1.095,0.426,1.783,0.426c1.231,0,2.069-0.27,2.513-0.811c0.443-0.539,0.666-1.161,0.666-1.863
		c0-0.566-0.101-1.053-0.301-1.458c-0.201-0.405-0.487-0.763-0.859-1.073c-0.373-0.311-0.81-0.594-1.31-0.852
		c-0.501-0.256-1.053-0.547-1.654-0.871c-1.633-0.783-2.972-1.646-4.017-2.592c-1.046-0.945-1.568-2.12-1.568-3.524
		c0-0.729,0.165-1.438,0.494-2.127c0.329-0.688,0.809-1.302,1.439-1.843c0.629-0.54,1.402-0.979,2.319-1.317
		c0.917-0.337,1.947-0.506,3.093-0.506c0.916,0,1.825,0.108,2.728,0.324c0.902,0.216,1.883,0.594,2.943,1.134l0.301,4.941h-2.406
		c-0.229-1.565-0.673-2.659-1.332-3.28c-0.659-0.621-1.533-0.932-2.621-0.932c-0.832,0-1.546,0.209-2.148,0.628
		c-0.601,0.419-0.902,1.02-0.902,1.803c0,0.567,0.143,1.053,0.43,1.458c0.286,0.405,0.666,0.776,1.138,1.114s1.009,0.654,1.61,0.952
		c0.602,0.297,1.231,0.594,1.89,0.891c0.63,0.271,1.26,0.554,1.891,0.851c0.629,0.298,1.195,0.662,1.697,1.094
		c0.5,0.433,0.909,0.951,1.225,1.56c0.314,0.608,0.472,1.357,0.472,2.249c0,0.756-0.158,1.506-0.472,2.248
		c-0.316,0.742-0.803,1.404-1.461,1.985c-0.659,0.581-1.489,1.047-2.492,1.397s-2.206,0.526-3.608,0.526
		c-1.031,0-2.062-0.136-3.093-0.405s-1.991-0.675-2.878-1.215L113.666,155.885z"/>
	<path fill="#FFFFFF" d="M146.915,150.7H134.93v0.771c0,0.242,0,0.513,0,0.81c0,0.298,0.014,0.636,0.043,1.013
		c0.057,0.973,0.236,1.863,0.537,2.674s0.694,1.513,1.181,2.106c0.487,0.595,1.067,1.061,1.74,1.397
		c0.672,0.338,1.424,0.507,2.255,0.507c1.145,0,2.184-0.276,3.114-0.831c0.931-0.553,1.854-1.343,2.771-2.369l1.934,1.135
		c-0.917,1.512-2.105,2.754-3.565,3.727c-1.46,0.972-3.15,1.458-5.069,1.458c-1.347,0-2.592-0.257-3.737-0.77
		c-1.146-0.513-2.134-1.216-2.964-2.106c-0.831-0.892-1.482-1.932-1.955-3.119c-0.472-1.188-0.708-2.457-0.708-3.809
		c0-1.729,0.237-3.281,0.708-4.658c0.473-1.377,1.139-2.545,1.998-3.504c0.859-0.958,1.868-1.694,3.028-2.208s2.428-0.77,3.802-0.77
		c0.945,0,1.896,0.148,2.856,0.445c0.959,0.298,1.811,0.737,2.556,1.317c0.745,0.58,1.36,1.316,1.848,2.208
		c0.486,0.891,0.73,1.932,0.73,3.119c0,0.541-0.037,0.918-0.108,1.135C147.853,150.593,147.516,150.7,146.915,150.7z
		 M135.273,148.512h7.475c0.343,0,0.537-0.026,0.58-0.081c0.042-0.053,0.064-0.229,0.064-0.526c0-0.405-0.08-0.816-0.237-1.236
		c-0.157-0.418-0.394-0.803-0.708-1.154c-0.315-0.351-0.695-0.634-1.139-0.851c-0.444-0.216-0.938-0.324-1.482-0.324
		c-1.289,0-2.313,0.392-3.071,1.175C135.997,146.298,135.502,147.298,135.273,148.512z"/>
	<path fill="#FFFFFF" d="M157.31,145.758c0.458-0.621,0.859-1.127,1.203-1.519s0.708-0.736,1.095-1.033
		c0.387-0.296,0.845-0.547,1.375-0.749c0.53-0.203,1.053-0.304,1.568-0.304c0.344,0,0.709,0.054,1.095,0.162
		c0.387,0.108,0.737,0.271,1.053,0.486c0.314,0.216,0.58,0.493,0.795,0.83c0.215,0.338,0.322,0.736,0.322,1.195
		c0,0.675-0.287,1.255-0.859,1.742c-0.573,0.486-1.217,0.729-1.933,0.729c-0.515,0-0.931-0.054-1.246-0.163
		c-0.315-0.107-0.58-0.229-0.795-0.364c-0.214-0.135-0.394-0.256-0.537-0.365c-0.144-0.108-0.301-0.162-0.473-0.162
		c-0.229,0-0.494,0.081-0.794,0.243c-0.301,0.163-0.587,0.386-0.859,0.669c-0.273,0.283-0.509,0.635-0.709,1.053
		c-0.2,0.42-0.301,0.871-0.301,1.357v8.305c0,0.621,0.036,1.107,0.108,1.458c0.071,0.352,0.264,0.622,0.58,0.81
		c0.314,0.189,0.788,0.305,1.417,0.346c0.629,0.039,1.489,0.061,2.578,0.061v1.984c-0.745-0.027-1.676-0.055-2.792-0.081
		s-2.27-0.04-3.458-0.04c-1.188,0-2.348,0.006-3.479,0.02c-1.132,0.014-2.083,0.047-2.856,0.102v-1.984
		c0.801,0,1.432-0.021,1.89-0.061c0.458-0.041,0.801-0.143,1.031-0.305c0.229-0.162,0.365-0.426,0.408-0.79s0.064-0.87,0.064-1.519
		v-9.277c0-0.647-0.015-1.16-0.043-1.539c-0.028-0.378-0.128-0.668-0.301-0.871c-0.172-0.203-0.422-0.325-0.751-0.365
		c-0.33-0.041-0.796-0.061-1.397-0.061v-1.621c1.031-0.135,1.934-0.344,2.707-0.628c0.773-0.283,1.503-0.722,2.19-1.316h2.363
		c-0.029,0.351-0.058,0.696-0.085,1.033c-0.029,0.337-0.058,0.682-0.086,1.033c-0.029,0.352-0.05,0.655-0.064,0.911
		C157.317,145.428,157.31,145.623,157.31,145.758z"/>
	<path fill="#FFFFFF" d="M175.869,163.096l-6.187-15.231c-0.315-0.783-0.573-1.384-0.773-1.803c-0.2-0.418-0.407-0.729-0.622-0.932
		c-0.216-0.203-0.488-0.317-0.817-0.345c-0.329-0.026-0.767-0.04-1.31-0.04v-2.026c0.516,0.055,1.23,0.088,2.148,0.101
		c0.916,0.015,1.875,0.021,2.877,0.021s1.977-0.006,2.922-0.021c0.945-0.013,1.675-0.046,2.19-0.101v2.026
		c-0.772,0-1.374,0.021-1.804,0.061c-0.43,0.041-0.717,0.149-0.859,0.324c-0.144,0.176-0.157,0.446-0.043,0.81
		c0.114,0.365,0.301,0.885,0.559,1.56l3.393,8.67l3.695-8.75c0.258-0.595,0.451-1.067,0.58-1.418s0.135-0.621,0.021-0.81
		c-0.115-0.189-0.352-0.304-0.709-0.345c-0.359-0.041-0.881-0.061-1.568-0.061v-2.066c0.629,0.055,1.324,0.088,2.084,0.101
		c0.758,0.015,1.518,0.021,2.276,0.021s1.481-0.013,2.169-0.041c0.688-0.027,1.275-0.054,1.762-0.082v2.026
		c-0.486,0-0.889,0.034-1.203,0.101c-0.314,0.068-0.587,0.21-0.816,0.426c-0.229,0.216-0.443,0.52-0.645,0.912
		c-0.2,0.391-0.444,0.912-0.729,1.559l-6.616,15.354H175.869z"/>
	<path fill="#FFFFFF" d="M208.902,158.64l0.473,1.904c-0.658,0.594-1.403,1.168-2.234,1.721c-0.83,0.554-1.775,0.831-2.835,0.831
		c-0.487,0-0.923-0.081-1.31-0.243s-0.717-0.352-0.988-0.567c-0.273-0.216-0.473-0.485-0.602-0.81s-0.208-0.581-0.236-0.77
		c-0.258,0.27-0.58,0.547-0.966,0.83c-0.387,0.283-0.831,0.533-1.332,0.749s-1.116,0.405-1.847,0.567s-1.512,0.243-2.342,0.243
		c-0.773,0-1.489-0.122-2.148-0.364c-0.658-0.244-1.224-0.567-1.696-0.973c-0.473-0.404-0.838-0.885-1.095-1.438
		c-0.259-0.555-0.373-1.141-0.344-1.763c0.027-1.08,0.365-1.999,1.009-2.755c0.646-0.756,1.503-1.418,2.577-1.985
		c1.074-0.566,2.305-1.066,3.695-1.499c1.389-0.432,2.856-0.863,4.402-1.296v-2.512c0-1.079-0.236-1.924-0.709-2.532
		c-0.473-0.607-1.353-0.911-2.642-0.911c-0.917,0-1.69,0.256-2.319,0.77c-0.631,0.513-0.974,1.188-1.031,2.026
		c0,0.675-0.215,1.222-0.645,1.641s-1.016,0.627-1.761,0.627s-1.261-0.188-1.547-0.566s-0.43-0.811-0.43-1.297
		c0-0.783,0.372-1.525,1.117-2.228c0.744-0.702,2.004-1.499,3.78-2.39c0.973-0.459,1.783-0.816,2.428-1.074
		c0.644-0.256,1.395-0.385,2.255-0.385c0.829,0,1.611,0.108,2.341,0.324c0.73,0.216,1.375,0.534,1.934,0.952
		c0.559,0.418,0.994,0.932,1.31,1.54s0.474,1.29,0.474,2.046v10.775c0,0.676,0.021,1.188,0.064,1.539
		c0.043,0.352,0.17,0.555,0.387,0.608c0.214,0.054,0.543-0.034,0.987-0.264C207.521,159.485,208.129,159.127,208.902,158.64z
		 M201.084,157.992v-4.902c-2.52,0.568-4.346,1.203-5.477,1.904c-1.132,0.703-1.697,1.58-1.697,2.634
		c0,1.134,0.222,1.863,0.666,2.188c0.443,0.323,1.123,0.485,2.041,0.485c0.773,0,1.566-0.249,2.383-0.749
		C199.817,159.052,200.512,158.533,201.084,157.992z"/>
	<path fill="#FFFFFF" d="M217.838,145.88v10.938c0,0.729,0.043,1.323,0.129,1.782c0.086,0.46,0.207,0.817,0.365,1.074
		c0.156,0.256,0.336,0.432,0.537,0.526c0.199,0.095,0.414,0.142,0.645,0.142c0.171,0,0.407-0.041,0.708-0.121
		c0.301-0.082,0.63-0.195,0.988-0.345c0.357-0.147,0.737-0.345,1.139-0.587c0.399-0.243,0.786-0.527,1.159-0.852l1.246,1.701
		c-0.917,0.893-1.926,1.607-3.029,2.147c-1.102,0.54-2.27,0.811-3.5,0.811c-1.547,0-2.75-0.385-3.608-1.154
		c-0.86-0.77-1.29-1.804-1.29-3.1V145.88h-2.963v-1.377c1.488-0.378,2.577-1.04,3.266-1.986c0.687-0.945,1.188-2.309,1.502-4.091
		h2.707v4.861h6.744v2.593H217.838z"/>
	<path fill="#FFFFFF" d="M232.915,147.095v11.221c0,0.54,0.022,0.959,0.065,1.256c0.043,0.298,0.164,0.514,0.365,0.648
		c0.199,0.135,0.5,0.223,0.902,0.264c0.4,0.039,0.959,0.061,1.675,0.061v1.903c-1.003,0-1.919-0.014-2.749-0.04
		c-0.832-0.027-1.633-0.041-2.406-0.041c-0.831,0-1.683,0.007-2.557,0.021c-0.873,0.013-1.811,0.034-2.813,0.061v-1.903
		c0.715,0,1.273-0.014,1.675-0.041c0.4-0.026,0.702-0.114,0.902-0.264c0.2-0.148,0.321-0.37,0.364-0.668
		c0.044-0.297,0.064-0.716,0.064-1.256v-9.723c0-0.647-0.014-1.16-0.043-1.539c-0.028-0.378-0.129-0.668-0.301-0.871
		c-0.171-0.203-0.422-0.325-0.751-0.365s-0.795-0.061-1.396-0.061v-1.621c1.031-0.135,1.934-0.344,2.706-0.628
		c0.773-0.283,1.504-0.722,2.191-1.316h2.363c-0.115,0.811-0.188,1.668-0.216,2.573S232.915,146.447,232.915,147.095z
		 M230.51,131.458c0.859,0,1.582,0.277,2.17,0.831c0.586,0.554,0.88,1.182,0.88,1.884c0,0.676-0.294,1.283-0.88,1.823
		c-0.588,0.541-1.311,0.81-2.17,0.81c-0.43,0-0.823-0.073-1.182-0.223c-0.358-0.148-0.68-0.344-0.967-0.587
		c-0.286-0.243-0.508-0.526-0.664-0.851c-0.159-0.324-0.237-0.648-0.237-0.972c0-0.702,0.301-1.33,0.901-1.884
		C228.963,131.735,229.68,131.458,230.51,131.458z"/>
	<path fill="#FFFFFF" d="M246.404,163.096l-6.186-15.231c-0.316-0.783-0.574-1.384-0.773-1.803
		c-0.201-0.418-0.408-0.729-0.623-0.932s-0.487-0.317-0.816-0.345c-0.33-0.026-0.766-0.04-1.311-0.04v-2.026
		c0.516,0.055,1.232,0.088,2.148,0.101c0.916,0.015,1.875,0.021,2.879,0.021c1.001,0,1.975-0.006,2.92-0.021
		c0.945-0.013,1.676-0.046,2.191-0.101v2.026c-0.773,0-1.375,0.021-1.805,0.061c-0.43,0.041-0.716,0.149-0.859,0.324
		c-0.143,0.176-0.156,0.446-0.043,0.81c0.115,0.365,0.301,0.885,0.559,1.56l3.395,8.67l3.693-8.75
		c0.258-0.595,0.451-1.067,0.58-1.418s0.136-0.621,0.021-0.81c-0.114-0.189-0.352-0.304-0.709-0.345
		c-0.358-0.041-0.881-0.061-1.567-0.061v-2.066c0.63,0.055,1.324,0.088,2.084,0.101c0.758,0.015,1.517,0.021,2.276,0.021
		c0.758,0,1.482-0.013,2.169-0.041c0.688-0.027,1.274-0.054,1.761-0.082v2.026c-0.486,0-0.887,0.034-1.202,0.101
		c-0.315,0.068-0.587,0.21-0.816,0.426c-0.229,0.216-0.444,0.52-0.644,0.912c-0.201,0.391-0.445,0.912-0.73,1.559l-6.615,15.354
		H246.404z"/>
	<path fill="#FFFFFF" d="M276.088,150.7h-11.985v0.771c0,0.242,0,0.513,0,0.81c0,0.298,0.015,0.636,0.044,1.013
		c0.057,0.973,0.235,1.863,0.536,2.674s0.694,1.513,1.181,2.106c0.487,0.595,1.067,1.061,1.74,1.397
		c0.672,0.338,1.425,0.507,2.256,0.507c1.144,0,2.184-0.276,3.113-0.831c0.932-0.553,1.854-1.343,2.771-2.369l1.934,1.135
		c-0.918,1.512-2.105,2.754-3.566,3.727c-1.459,0.972-3.15,1.458-5.068,1.458c-1.346,0-2.594-0.257-3.738-0.77
		s-2.133-1.216-2.963-2.106c-0.832-0.892-1.482-1.932-1.955-3.119c-0.473-1.188-0.709-2.457-0.709-3.809
		c0-1.729,0.236-3.281,0.709-4.658s1.139-2.545,1.998-3.504c0.858-0.958,1.867-1.694,3.027-2.208s2.428-0.77,3.803-0.77
		c0.945,0,1.896,0.148,2.855,0.445c0.961,0.298,1.813,0.737,2.557,1.317c0.746,0.58,1.359,1.316,1.848,2.208
		c0.486,0.891,0.73,1.932,0.73,3.119c0,0.541-0.037,0.918-0.107,1.135C277.025,150.593,276.689,150.7,276.088,150.7z
		 M264.447,148.512h7.473c0.346,0,0.539-0.026,0.58-0.081c0.045-0.053,0.064-0.229,0.064-0.526c0-0.405-0.078-0.816-0.236-1.236
		c-0.158-0.418-0.393-0.803-0.709-1.154c-0.314-0.351-0.693-0.634-1.138-0.851c-0.444-0.216-0.938-0.324-1.482-0.324
		c-1.288,0-2.312,0.392-3.071,1.175C265.169,146.298,264.675,147.298,264.447,148.512z"/>
</g>
</svg>
