<?xml version="1.0" encoding="utf-8"?>
<!-- Generator: Adobe Illustrator 16.0.0, SVG Export Plug-In . SVG Version: 6.00 Build 0)  -->
<!DOCTYPE svg PUBLIC "-//W3C//DTD SVG 1.0//EN" "http://www.w3.org/TR/2001/REC-SVG-20010904/DTD/svg10.dtd">
<svg version="1.0" id="Layer_1" xmlns="http://www.w3.org/2000/svg" xmlns:xlink="http://www.w3.org/1999/xlink" x="0px" y="0px"
	 width="328.5px" height="291.5px" viewBox="0 0 328.5 291.5" enable-background="new 0 0 328.5 291.5" xml:space="preserve">
<g>
	<g>
		<path fill="none" d="M245.945,48.96L83.164,238.541c21.943,19.046,50.566,30.588,81.836,30.588c68.926,0,125-56.074,125-125
			C290,106.053,272.883,71.906,245.945,48.96z"/>
		<path fill="none" d="M165,19.129c-68.926,0-125,56.074-125,125c0,37.297,16.426,70.825,42.416,93.748L245.182,48.314
			C223.463,30.108,195.491,19.129,165,19.129z"/>
		<path fill="#FFFFFF" d="M165,17.129c-70.027,0-127,56.973-127,127s56.973,127,127,127s127-56.973,127-127
			S235.027,17.129,165,17.129z M165,269.129c-31.27,0-59.893-11.542-81.836-30.588l-0.785,0.914l-0.758-0.652l0.795-0.926
			C56.426,214.954,40,181.426,40,144.129c0-68.926,56.074-125,125-125c30.491,0,58.463,10.979,80.182,29.186l0.439-0.512
			l0.758,0.652l-0.434,0.505C272.883,71.906,290,106.053,290,144.129C290,213.054,233.926,269.129,165,269.129z"/>
		<path fill="#FFFFFF" d="M245.182,48.314L82.416,237.877c0.25,0.221,0.496,0.445,0.748,0.664L245.945,48.96
			C245.691,48.744,245.438,48.528,245.182,48.314z"/>
		<path fill="#FFFFFF" d="M81.621,238.802l0.758,0.652l0.785-0.914c-0.252-0.219-0.498-0.443-0.748-0.664L81.621,238.802z"/>
		<path fill="#FFFFFF" d="M246.379,48.455l-0.758-0.652l-0.439,0.512c0.256,0.214,0.51,0.43,0.764,0.646L246.379,48.455z"/>
	</g>
	<g>
		<path fill="#FFFFFF" d="M117.065,107.25l-8.264,16.934h-3.293L89.104,86.332c-0.372-0.859-0.704-1.582-0.994-2.168
			c-0.289-0.586-0.662-1.055-1.117-1.406c-0.457-0.352-1.037-0.605-1.74-0.762c-0.705-0.156-1.637-0.234-2.796-0.234V78.89
			c0.87,0.078,2.091,0.127,3.665,0.146s3.21,0.029,4.909,0.029c1.698,0,3.324-0.02,4.878-0.059c1.553-0.039,2.723-0.078,3.51-0.117
			v2.871c-1.035,0-1.854,0.039-2.454,0.117s-1.005,0.264-1.212,0.557s-0.248,0.713-0.124,1.26s0.373,1.27,0.745,2.168l12.055,28.828
			l6.213-12.773l-6.896-15.469c-0.373-0.859-0.736-1.592-1.088-2.197s-0.767-1.094-1.242-1.465
			c-0.477-0.371-1.066-0.635-1.771-0.791c-0.704-0.156-1.594-0.234-2.671-0.234V78.89c0.911,0.078,2.144,0.127,3.696,0.146
			c1.554,0.02,3.148,0.029,4.785,0.029c1.635,0,3.168-0.01,4.598-0.029c1.429-0.02,2.516-0.068,3.262-0.146v2.871
			c-0.953,0-1.688,0.039-2.205,0.117c-0.52,0.078-0.861,0.264-1.025,0.557c-0.166,0.293-0.178,0.723-0.031,1.289
			c0.145,0.566,0.444,1.338,0.9,2.314l3.418,7.969l3.789-7.676c0.456-0.977,0.767-1.758,0.933-2.344
			c0.165-0.586,0.145-1.045-0.062-1.377c-0.209-0.332-0.643-0.557-1.305-0.674c-0.664-0.117-1.575-0.176-2.734-0.176V78.89
			c0.786,0.078,1.822,0.127,3.106,0.146s2.61,0.029,3.977,0.029s2.661-0.02,3.884-0.059c1.221-0.039,2.143-0.078,2.765-0.117v2.871
			c-0.829,0-1.544,0.137-2.144,0.41c-0.602,0.273-1.119,0.635-1.554,1.084s-0.808,0.967-1.118,1.553s-0.611,1.191-0.9,1.816
			l-6.275,12.891l6.275,14.414l10.686-27.188c0.414-1.133,0.705-2.031,0.871-2.695c0.164-0.664,0.145-1.162-0.063-1.494
			c-0.208-0.332-0.643-0.547-1.305-0.645c-0.663-0.098-1.574-0.146-2.734-0.146V78.89c0.787,0.078,1.791,0.127,3.014,0.146
			c1.221,0.02,2.475,0.029,3.76,0.029c1.283,0,2.494-0.02,3.635-0.059c1.139-0.039,1.998-0.078,2.578-0.117v2.871
			c-0.787,0-1.398,0.049-1.833,0.146s-0.808,0.332-1.118,0.703s-0.611,0.908-0.901,1.611s-0.643,1.66-1.056,2.871l-14.602,37.09
			h-3.23L117.065,107.25z"/>
		<path fill="#FFFFFF" d="M172.176,117.738l0.684,2.754c-0.953,0.859-2.029,1.689-3.23,2.49s-2.568,1.201-4.102,1.201
			c-0.703,0-1.335-0.117-1.894-0.352s-1.035-0.508-1.43-0.82c-0.394-0.313-0.683-0.703-0.869-1.172s-0.301-0.84-0.342-1.113
			c-0.373,0.391-0.839,0.791-1.398,1.201c-0.559,0.41-1.201,0.771-1.926,1.084s-1.615,0.586-2.672,0.82s-2.186,0.352-3.386,0.352
			c-1.118,0-2.154-0.176-3.106-0.527c-0.953-0.352-1.771-0.82-2.455-1.406s-1.211-1.279-1.584-2.08s-0.539-1.65-0.497-2.549
			c0.04-1.563,0.528-2.891,1.46-3.984s2.175-2.051,3.729-2.871c1.553-0.82,3.334-1.543,5.344-2.168
			c2.008-0.625,4.131-1.25,6.368-1.875v-3.633c0-1.563-0.342-2.783-1.025-3.662s-1.957-1.318-3.821-1.318
			c-1.326,0-2.444,0.371-3.355,1.113s-1.408,1.719-1.49,2.93c0,0.977-0.311,1.768-0.933,2.373c-0.621,0.605-1.471,0.908-2.548,0.908
			s-1.822-0.273-2.236-0.82s-0.621-1.172-0.621-1.875c0-1.133,0.537-2.207,1.615-3.223c1.076-1.016,2.898-2.168,5.468-3.457
			c1.407-0.664,2.579-1.182,3.511-1.553s2.02-0.557,3.262-0.557c1.201,0,2.33,0.156,3.387,0.469
			c1.056,0.313,1.988,0.771,2.794,1.377c0.809,0.605,1.439,1.348,1.896,2.227c0.455,0.879,0.684,1.865,0.684,2.959v15.586
			c0,0.977,0.031,1.719,0.092,2.227c0.063,0.508,0.25,0.801,0.561,0.879s0.785-0.049,1.428-0.381S171.059,118.441,172.176,117.738z
			 M160.869,116.801v-7.09c-3.646,0.82-6.286,1.738-7.923,2.754s-2.453,2.285-2.453,3.809c0,1.641,0.32,2.695,0.963,3.164
			c0.642,0.469,1.625,0.703,2.951,0.703c1.118,0,2.268-0.361,3.448-1.084S160.04,117.582,160.869,116.801z"/>
		<path fill="#FFFFFF" d="M185.1,99.281v15.82c0,1.055,0.063,1.914,0.188,2.578c0.123,0.664,0.299,1.182,0.527,1.553
			c0.227,0.371,0.486,0.625,0.777,0.762c0.289,0.137,0.6,0.205,0.932,0.205c0.248,0,0.59-0.059,1.025-0.176s0.91-0.283,1.43-0.498
			c0.516-0.215,1.064-0.498,1.646-0.85c0.578-0.352,1.139-0.762,1.676-1.23l1.803,2.461c-1.326,1.289-2.787,2.324-4.381,3.105
			s-3.283,1.172-5.063,1.172c-2.238,0-3.977-0.557-5.221-1.67c-1.242-1.113-1.863-2.607-1.863-4.482v-18.75h-4.287v-1.992
			c2.152-0.547,3.729-1.504,4.723-2.871s1.717-3.34,2.174-5.918h3.914v7.031h9.756v3.75H185.1z"/>
		<path fill="#FFFFFF" d="M220.205,106.254h-17.336v1.113c0,0.352,0,0.742,0,1.172s0.021,0.918,0.063,1.465
			c0.082,1.406,0.342,2.695,0.777,3.867s1.004,2.188,1.709,3.047c0.703,0.859,1.543,1.533,2.516,2.021s2.061,0.732,3.262,0.732
			c1.656,0,3.158-0.4,4.506-1.201c1.346-0.801,2.68-1.943,4.006-3.428l2.797,1.641c-1.326,2.188-3.045,3.984-5.156,5.391
			c-2.113,1.406-4.559,2.109-7.332,2.109c-1.947,0-3.75-0.371-5.406-1.113s-3.086-1.758-4.287-3.047s-2.143-2.793-2.826-4.512
			s-1.025-3.555-1.025-5.508c0-2.5,0.342-4.746,1.025-6.738s1.646-3.682,2.889-5.068s2.703-2.451,4.381-3.193
			s3.51-1.113,5.498-1.113c1.367,0,2.744,0.215,4.133,0.645c1.387,0.43,2.619,1.064,3.695,1.904c1.078,0.84,1.967,1.904,2.672,3.193
			s1.057,2.793,1.057,4.512c0,0.781-0.053,1.328-0.154,1.641C221.561,106.097,221.074,106.254,220.205,106.254z M203.367,103.09
			h10.811c0.498,0,0.777-0.039,0.84-0.117c0.061-0.078,0.092-0.332,0.092-0.762c0-0.586-0.113-1.182-0.342-1.787
			c-0.227-0.605-0.568-1.162-1.023-1.67c-0.457-0.508-1.006-0.918-1.648-1.23s-1.355-0.469-2.143-0.469
			c-1.863,0-3.346,0.566-4.443,1.699S203.697,101.332,203.367,103.09z"/>
		<path fill="#FFFFFF" d="M235.24,99.105c0.662-0.898,1.244-1.631,1.74-2.197c0.498-0.566,1.025-1.064,1.584-1.494
			c0.561-0.43,1.223-0.791,1.988-1.084c0.768-0.293,1.523-0.439,2.27-0.439c0.496,0,1.023,0.078,1.584,0.234
			c0.559,0.156,1.066,0.391,1.521,0.703s0.84,0.713,1.15,1.201s0.465,1.064,0.465,1.729c0,0.977-0.414,1.816-1.242,2.52
			s-1.762,1.055-2.795,1.055c-0.746,0-1.348-0.078-1.803-0.234c-0.457-0.156-0.84-0.332-1.15-0.527s-0.568-0.371-0.775-0.527
			c-0.209-0.156-0.436-0.234-0.684-0.234c-0.332,0-0.715,0.117-1.15,0.352c-0.434,0.234-0.85,0.557-1.242,0.967
			c-0.395,0.41-0.736,0.918-1.025,1.523s-0.436,1.26-0.436,1.963v12.012c0,0.898,0.053,1.602,0.156,2.109s0.383,0.898,0.838,1.172
			c0.457,0.273,1.141,0.439,2.051,0.498c0.912,0.059,2.154,0.088,3.729,0.088v2.871c-1.078-0.039-2.424-0.078-4.039-0.117
			s-3.283-0.059-5.002-0.059s-3.396,0.01-5.031,0.029c-1.637,0.02-3.014,0.068-4.133,0.146v-2.871c1.16,0,2.07-0.029,2.734-0.088
			c0.662-0.059,1.158-0.205,1.49-0.439s0.529-0.615,0.592-1.143c0.061-0.527,0.092-1.26,0.092-2.197v-13.418
			c0-0.938-0.021-1.68-0.063-2.227s-0.186-0.967-0.434-1.26c-0.25-0.293-0.611-0.469-1.088-0.527s-1.15-0.088-2.02-0.088v-2.344
			c1.492-0.195,2.797-0.498,3.914-0.908c1.119-0.41,2.176-1.045,3.17-1.904h3.416c-0.041,0.508-0.082,1.006-0.123,1.494
			c-0.043,0.488-0.084,0.986-0.125,1.494s-0.072,0.947-0.094,1.318S235.24,98.91,235.24,99.105z"/>
		<path fill="#FFFFFF" d="M90.565,194.074l-1.491-10.137h3.915c0.289,1.25,0.641,2.432,1.056,3.545
			c0.413,1.113,0.952,2.08,1.615,2.9c0.662,0.82,1.46,1.475,2.392,1.963c0.933,0.488,2.082,0.732,3.449,0.732
			c1.283,0,2.485-0.186,3.604-0.557c1.119-0.371,2.07-0.889,2.858-1.553c0.786-0.664,1.407-1.465,1.864-2.402
			c0.455-0.938,0.684-1.973,0.684-3.105c0-1.328-0.249-2.48-0.746-3.457s-1.171-1.836-2.02-2.578
			c-0.85-0.742-1.833-1.426-2.951-2.051c-1.119-0.625-2.279-1.25-3.479-1.875c-1.202-0.625-2.444-1.299-3.728-2.021
			c-1.285-0.723-2.455-1.572-3.512-2.549c-1.056-0.977-1.926-2.129-2.609-3.457s-1.025-2.891-1.025-4.688
			c0-2.109,0.383-3.955,1.15-5.537c0.766-1.582,1.812-2.9,3.138-3.955c1.325-1.055,2.878-1.846,4.659-2.373s3.707-0.791,5.779-0.791
			c1.573,0,2.971,0.088,4.193,0.264c1.222,0.176,2.6,0.381,4.133,0.615l1.305,9.082h-3.854c-0.414-2.422-1.139-4.17-2.174-5.244
			c-1.036-1.074-2.59-1.611-4.66-1.611c-2.527,0-4.442,0.684-5.747,2.051c-1.306,1.367-1.958,3.125-1.958,5.273
			c0,1.289,0.29,2.451,0.871,3.486c0.579,1.035,1.355,1.982,2.33,2.842c0.973,0.859,2.07,1.631,3.293,2.314
			c1.221,0.684,2.475,1.318,3.758,1.904c1.284,0.625,2.548,1.279,3.791,1.963c1.242,0.684,2.361,1.484,3.355,2.402
			s1.791,1.982,2.392,3.193s0.901,2.676,0.901,4.395c0,2.148-0.467,4.043-1.398,5.684s-2.144,3.008-3.635,4.102
			s-3.199,1.924-5.126,2.49s-3.884,0.85-5.872,0.85c-1.947,0-3.738-0.166-5.374-0.498C94.054,195.353,92.345,194.816,90.565,194.074
			z"/>
		<path fill="#FFFFFF" d="M143.004,195.246v-3.574c-1.242,1.289-2.732,2.344-4.473,3.164s-3.853,1.27-6.338,1.348
			c-0.912,0-1.833-0.147-2.765-0.44c-0.933-0.294-1.771-0.763-2.517-1.409s-1.347-1.458-1.802-2.438
			c-0.456-0.979-0.684-2.152-0.684-3.523v-15.857c0-0.625-0.03-1.125-0.093-1.496c-0.063-0.372-0.229-0.664-0.498-0.875
			s-0.662-0.346-1.18-0.403c-0.519-0.058-1.233-0.126-2.145-0.202v-2.248c1.408-0.038,3.045-0.105,4.909-0.201
			s3.79-0.223,5.778-0.379c-0.084,0.898-0.146,1.914-0.187,3.047c-0.042,1.133-0.062,2.031-0.062,2.695v12.656
			c0,1.484,0.071,2.666,0.217,3.545c0.145,0.879,0.373,1.553,0.684,2.021s0.704,0.781,1.181,0.938
			c0.476,0.156,1.065,0.234,1.771,0.234c1.201,0,2.588-0.332,4.163-0.996c1.573-0.664,2.94-1.543,4.101-2.637V172.57
			c0-0.625-0.063-1.113-0.186-1.465c-0.125-0.352-0.354-0.635-0.684-0.85c-0.332-0.215-0.787-0.361-1.367-0.439
			s-1.347-0.156-2.299-0.234v-2.285c1.408-0.039,3.146-0.107,5.219-0.205c2.07-0.098,4.102-0.225,6.09-0.381
			c-0.084,0.898-0.146,1.914-0.188,3.047s-0.062,2.031-0.062,2.695v17.637c0,0.508,0.03,0.908,0.093,1.201s0.228,0.498,0.498,0.615
			c0.268,0.117,0.692,0.166,1.273,0.146c0.579-0.02,1.387-0.068,2.423-0.146v2.344c-0.497,0.117-1.099,0.244-1.802,0.381
			c-0.705,0.137-1.439,0.293-2.206,0.469s-1.522,0.361-2.268,0.557s-1.409,0.391-1.988,0.586c-0.705,0.273-1.315,0.234-1.833-0.117
			C143.263,195.773,143.004,195.48,143.004,195.246z"/>
		<path fill="#FFFFFF" d="M161.708,194.015c-1.864-0.781-3.066-1.807-3.604-3.076c-0.539-1.27-0.643-2.627-0.311-4.072
			c0.951-0.547,1.811-1.045,2.578-1.494c0.766-0.449,1.355-0.83,1.771-1.143c-1.45-0.781-2.683-1.807-3.696-3.076
			c-1.016-1.27-1.523-2.998-1.523-5.186c0-1.406,0.27-2.715,0.809-3.926c0.537-1.211,1.346-2.275,2.423-3.193
			s2.423-1.641,4.038-2.168c1.617-0.527,3.48-0.791,5.593-0.791c1.158,0,2.246,0.107,3.262,0.322
			c1.014,0.215,1.936,0.42,2.764,0.615c0.828,0.273,1.719,0.508,2.672,0.703s2.029,0.293,3.23,0.293c0.373,0,0.684,0,0.934,0
			c0.248,0,0.518-0.02,0.807-0.059c0.207,0,0.467-0.029,0.777-0.088s0.963-0.127,1.957-0.205v4.102l-5.654-0.234
			c0.166,0.195,0.352,0.703,0.559,1.523s0.311,1.699,0.311,2.637c0,1.563-0.301,2.969-0.9,4.219
			c-0.602,1.25-1.459,2.314-2.578,3.193s-2.455,1.553-4.008,2.021s-3.262,0.703-5.125,0.703c-0.498,0-1.006,0-1.523,0
			s-1.025-0.039-1.521-0.117c-1.078,0.547-1.616,1.348-1.616,2.402c0,1.016,0.29,1.699,0.87,2.051
			c0.58,0.352,1.531,0.527,2.857,0.527c1.533,0,2.992,0.01,4.381,0.029c1.387,0.02,2.766,0.029,4.133,0.029
			c1.406,0,2.723,0.146,3.945,0.439c1.221,0.293,2.277,0.742,3.168,1.348s1.584,1.367,2.082,2.285
			c0.496,0.918,0.746,2.002,0.746,3.252c0,1.484-0.457,2.91-1.367,4.277c-0.912,1.367-2.176,2.588-3.791,3.662
			s-3.521,1.934-5.717,2.578s-4.557,0.967-7.082,0.967c-2.154,0-4.039-0.254-5.654-0.762s-2.963-1.152-4.039-1.934
			c-1.078-0.781-1.885-1.641-2.424-2.578c-0.538-0.938-0.807-1.855-0.807-2.754c0-1.836,0.621-3.379,1.863-4.629
			C158.539,195.461,160.008,194.562,161.708,194.015z M161.521,200.461c0,0.977,0.206,1.816,0.621,2.52
			c0.413,0.703,0.973,1.289,1.678,1.758c0.704,0.469,1.542,0.811,2.516,1.025c0.973,0.215,1.998,0.322,3.076,0.322
			c1.49,0,2.889-0.146,4.193-0.439s2.443-0.713,3.418-1.26c0.973-0.547,1.729-1.201,2.268-1.963
			c0.537-0.762,0.807-1.631,0.807-2.607c0-0.898-0.217-1.641-0.652-2.227c-0.434-0.586-1.035-1.055-1.801-1.406
			c-0.768-0.352-1.668-0.596-2.703-0.732s-2.154-0.205-3.355-0.205c-3.355,0-5.871,0.469-7.548,1.406
			C162.36,197.59,161.521,198.859,161.521,200.461z M163.881,175.324c0,2.109,0.456,3.877,1.367,5.303
			c0.912,1.426,2.236,2.139,3.977,2.139c2.029,0,3.469-0.645,4.318-1.934s1.273-2.852,1.273-4.688c0-0.859-0.113-1.729-0.342-2.607
			c-0.227-0.879-0.568-1.68-1.025-2.402c-0.455-0.723-1.055-1.318-1.801-1.787s-1.615-0.703-2.609-0.703
			c-0.871,0-1.627,0.205-2.268,0.615c-0.643,0.41-1.182,0.938-1.615,1.582c-0.435,0.645-0.757,1.367-0.964,2.168
			S163.881,174.582,163.881,175.324z"/>
		<path fill="#FFFFFF" d="M217.068,189.738l0.684,2.754c-0.955,0.859-2.031,1.689-3.232,2.49s-2.568,1.201-4.1,1.201
			c-0.705,0-1.336-0.117-1.896-0.352c-0.559-0.234-1.035-0.508-1.428-0.82c-0.395-0.313-0.684-0.703-0.871-1.172
			c-0.186-0.469-0.301-0.84-0.342-1.113c-0.371,0.391-0.838,0.791-1.396,1.201c-0.561,0.41-1.203,0.771-1.928,1.084
			s-1.615,0.586-2.67,0.82c-1.057,0.234-2.186,0.352-3.387,0.352c-1.119,0-2.154-0.176-3.107-0.527s-1.77-0.82-2.453-1.406
			s-1.213-1.279-1.586-2.08s-0.539-1.65-0.496-2.549c0.041-1.563,0.527-2.891,1.459-3.984c0.934-1.094,2.176-2.051,3.729-2.871
			s3.334-1.543,5.344-2.168c2.008-0.625,4.133-1.25,6.369-1.875v-3.633c0-1.563-0.342-2.783-1.025-3.662s-1.957-1.318-3.822-1.318
			c-1.326,0-2.443,0.371-3.354,1.113c-0.912,0.742-1.41,1.719-1.492,2.93c0,0.977-0.311,1.768-0.932,2.373s-1.471,0.908-2.547,0.908
			c-1.078,0-1.824-0.273-2.238-0.82s-0.621-1.172-0.621-1.875c0-1.133,0.539-2.207,1.615-3.223c1.078-1.016,2.9-2.168,5.469-3.457
			c1.408-0.664,2.578-1.182,3.51-1.553s2.02-0.557,3.262-0.557c1.201,0,2.33,0.156,3.387,0.469s1.988,0.771,2.797,1.377
			c0.807,0.605,1.438,1.348,1.895,2.227c0.455,0.879,0.684,1.865,0.684,2.959v15.586c0,0.977,0.031,1.719,0.094,2.227
			c0.061,0.508,0.248,0.801,0.559,0.879s0.787-0.049,1.43-0.381C215.068,190.959,215.949,190.441,217.068,189.738z M205.76,188.801
			v-7.09c-3.646,0.82-6.287,1.738-7.922,2.754c-1.637,1.016-2.455,2.285-2.455,3.809c0,1.641,0.32,2.695,0.963,3.164
			s1.625,0.703,2.951,0.703c1.119,0,2.268-0.361,3.449-1.084C203.926,190.334,204.93,189.582,205.76,188.801z"/>
		<path fill="#FFFFFF" d="M230.984,171.105c0.662-0.898,1.244-1.631,1.74-2.197c0.498-0.566,1.025-1.064,1.584-1.494
			c0.561-0.43,1.223-0.791,1.988-1.084c0.768-0.293,1.523-0.439,2.27-0.439c0.496,0,1.023,0.078,1.584,0.234
			c0.559,0.156,1.066,0.391,1.521,0.703s0.84,0.713,1.15,1.201s0.465,1.064,0.465,1.729c0,0.977-0.414,1.816-1.242,2.52
			s-1.762,1.055-2.795,1.055c-0.746,0-1.348-0.078-1.803-0.234c-0.457-0.156-0.84-0.332-1.15-0.527s-0.568-0.371-0.775-0.527
			c-0.209-0.156-0.436-0.234-0.684-0.234c-0.332,0-0.715,0.117-1.15,0.352c-0.434,0.234-0.85,0.557-1.242,0.967
			c-0.395,0.41-0.736,0.918-1.025,1.523s-0.436,1.26-0.436,1.963v12.012c0,0.898,0.053,1.602,0.156,2.109s0.383,0.898,0.838,1.172
			c0.457,0.273,1.141,0.439,2.051,0.498c0.912,0.059,2.154,0.088,3.729,0.088v2.871c-1.078-0.039-2.424-0.078-4.039-0.117
			s-3.283-0.059-5.002-0.059s-3.396,0.01-5.031,0.029c-1.637,0.02-3.014,0.068-4.133,0.146v-2.871c1.16,0,2.07-0.029,2.734-0.088
			c0.662-0.059,1.158-0.205,1.49-0.439s0.529-0.615,0.592-1.143c0.061-0.527,0.092-1.26,0.092-2.197v-13.418
			c0-0.938-0.021-1.68-0.063-2.227s-0.186-0.967-0.434-1.26c-0.25-0.293-0.611-0.469-1.088-0.527s-1.15-0.088-2.02-0.088v-2.344
			c1.492-0.195,2.797-0.498,3.914-0.908c1.119-0.41,2.176-1.045,3.17-1.904h3.416c-0.041,0.508-0.082,1.006-0.123,1.494
			c-0.043,0.488-0.084,0.986-0.125,1.494s-0.072,0.947-0.094,1.318S230.984,170.91,230.984,171.105z"/>
	</g>
</g>
</svg>
