<?xml version="1.0" encoding="utf-8"?>
<!-- Generator: Adobe Illustrator 16.0.0, SVG Export Plug-In . SVG Version: 6.00 Build 0)  -->
<!DOCTYPE svg PUBLIC "-//W3C//DTD SVG 1.0//EN" "http://www.w3.org/TR/2001/REC-SVG-20010904/DTD/svg10.dtd">
<svg version="1.0" id="Capa_1" xmlns="http://www.w3.org/2000/svg" xmlns:xlink="http://www.w3.org/1999/xlink" x="0px" y="0px"
	 width="578px" height="560px" viewBox="191.5 0 578 560" enable-background="new 191.5 0 578 560" xml:space="preserve">
<g>
	<path fill="#23472F" d="M753.7,98.998c6.061-13.239,7.791-27.98,5.003-42.633l0,0c-5.266-27.673-27.396-49.804-55.071-55.069
		c-14.651-2.789-29.395-1.058-42.631,5.003c-17.799,8.148-36.683,9.845-53.172,4.784c-99.039-30.406-218.725,5.64-304.917,91.829
		c-86.191,86.192-122.237,205.879-91.831,304.916c5.062,16.49,3.363,35.373-4.785,53.176c-6.059,13.236-7.789,27.975-5.003,42.623
		c5.263,27.676,27.392,49.808,55.066,55.074c4.552,0.867,9.111,1.299,13.632,1.299c10.034,0,19.878-2.12,29.006-6.301
		c17.797-8.146,36.679-9.846,53.17-4.783c99.04,30.412,218.726-5.638,304.916-91.829c86.192-86.191,122.237-205.879,91.83-304.916
		C743.854,135.681,745.553,116.797,753.7,98.998z M732.188,157.306c28.53,92.924-5.807,205.736-87.475,287.406
		c-81.669,81.67-194.484,116.001-287.407,87.476c-20.599-6.323-43.89-4.336-65.59,5.6c-9.922,4.544-21.017,5.829-32.083,3.723
		c-20.679-3.936-37.213-20.472-41.146-41.151c-2.104-11.063-0.817-22.153,3.723-32.071c9.935-21.706,11.924-45.002,5.602-65.595
		c-28.529-92.924,5.807-205.736,87.476-287.405c62.588-62.588,143.463-97.375,219.664-97.375c23.231,0,46.031,3.234,67.742,9.899
		c20.596,6.323,43.89,4.334,65.593-5.601c9.92-4.54,21.012-5.829,32.077-3.724c20.678,3.936,37.215,20.472,41.15,41.15l0,0
		c2.105,11.065,0.817,22.157-3.724,32.077C727.854,113.417,725.864,136.712,732.188,157.306z"/>
	<path fill="#23472F" d="M276.48,210.902c-4.333-2.14-9.581-0.362-11.72,3.973c-30.34,61.452-37.521,126.33-20.219,182.682
		c1.156,3.764,4.619,6.185,8.362,6.185c0.851,0,1.716-0.125,2.571-0.388c4.62-1.417,7.214-6.313,5.796-10.933
		c-15.985-52.066-9.172-112.368,19.182-169.801C282.592,218.287,280.813,213.04,276.48,210.902z"/>
	<path fill="#23472F" d="M704.748,193.846c0.671,4.319,4.396,7.406,8.635,7.406c0.447,0,0.9-0.034,1.356-0.104
		c4.775-0.743,8.044-5.217,7.301-9.992c-1.522-9.787-3.737-19.446-6.581-28.713c-1.419-4.62-6.316-7.212-10.934-5.796
		c-4.62,1.417-7.215,6.313-5.797,10.934C701.329,176.047,703.354,184.884,704.748,193.846z"/>
	<path fill="#23472F" d="M715.963,218.749c-0.029,0-0.058,0-0.087,0c-4.792,0-8.701,3.86-8.748,8.663
		c-0.396,40.182-11.995,82.165-33.545,121.41c-2.326,4.236-0.777,9.556,3.459,11.882c1.337,0.733,2.78,1.082,4.203,1.082
		c3.09,0,6.086-1.641,7.679-4.541c22.935-41.768,35.281-86.603,35.704-129.661C724.674,222.752,720.795,218.796,715.963,218.749z"/>
</g>
</svg>
