<?xml version="1.0" encoding="utf-8"?>
<!-- Generator: Adobe Illustrator 16.0.0, SVG Export Plug-In . SVG Version: 6.00 Build 0)  -->
<!DOCTYPE svg PUBLIC "-//W3C//DTD SVG 1.0//EN" "http://www.w3.org/TR/2001/REC-SVG-20010904/DTD/svg10.dtd">
<svg version="1.0" id="Capa_1" xmlns="http://www.w3.org/2000/svg" xmlns:xlink="http://www.w3.org/1999/xlink" x="0px" y="0px"
	 width="307.947px" height="307.947px" viewBox="0 0 307.947 307.947" enable-background="new 0 0 307.947 307.947"
	 xml:space="preserve">
<g>
	<path fill="#6D9999" d="M74.243,28.969c-23.979,0-43.49,19.51-43.49,43.489s19.511,43.487,43.49,43.487
		c23.98,0,43.49-19.509,43.49-43.487C117.733,48.479,98.224,28.969,74.243,28.969z"/>
	<path fill="#6D9999" d="M78.793,125.811h-9.1c-18.636,0-33.799,15.163-33.799,33.799v54.382c2.554-0.366,5.159-0.609,7.8-0.763
		c1.965-0.111,3.936-0.214,5.949-0.214c0.62,0,1.229,0.041,1.851,0.051v-0.106c0.161,0.003,0.314,0.017,0.479,0.014
		c14.781-0.293,28.859,3.463,43.175,6.643c0.164,0.036,0.322,0.057,0.482,0.084c0.646,0.271,1.348,0.475,2.104,0.604
		c0.475,0.109,0.95,0.218,1.426,0.328c1.894,0.438,3.765,0.873,5.631,1.301c2.62,0.601,5.215,1.173,7.8,1.728v-64.05
		C112.592,140.974,97.43,125.811,78.793,125.811z"/>
	<path fill="#23472F" d="M4.878,250.826c3.94-2.307,7.985-4.274,12.157-5.896c11.865-6.586,24.417-9.02,37.353-9.02
		c31.479,0,65.133,13.979,96.187,15.035c1.107,0.041,2.219,0.062,3.321,0.062c33.756,0,64.96-17.076,95.857-17.076
		c12.487,0,24.93,2.88,37.461,10.72c5.176,2.204,10.191,4.91,15.071,8.12c4.661-1.031,8.089-6.744,3.473-10.588
		c-18.707-15.584-37.216-20.643-56.045-20.643c-29.311,0-59.382,12.253-92.191,16.144c-3.852,0.457-7.691,0.66-11.53,0.66
		c-22.353,0-44.432-6.946-66.184-11.359c-9.503-1.93-18.948-3.347-28.317-3.521c-0.62-0.01-1.231-0.051-1.851-0.051
		c-1.985,0-3.971,0.065-5.949,0.192c-2.605,0.162-5.205,0.498-7.8,0.914c-11.135,1.787-22.168,5.981-33.1,14.046
		C-2.32,242.34,0.328,249.78,4.878,250.826z"/>
	<path fill="#23472F" d="M5.921,277.034c1.094,0,2.264-0.371,3.438-1.244c14.061-10.369,29.272-13.879,45.024-13.879
		c31.479,0,65.135,13.979,96.188,15.035c1.107,0.041,2.219,0.063,3.321,0.063c33.756,0,64.96-17.076,95.857-17.076
		c15.597,0,31.1,4.347,46.819,17.441c1.354,1.127,2.844,1.604,4.28,1.604c5.325,0,9.986-6.569,4.903-10.801
		c-2.15-1.792-4.301-3.407-6.441-4.932c-5.692-4.042-11.37-7.1-17.054-9.445c-10.812-4.474-21.627-6.266-32.55-6.266
		c-29.311,0-59.382,12.248-92.191,16.138c-3.852,0.457-7.691,0.66-11.53,0.66c-32.763,0-64.94-14.919-96.354-14.919
		c-9.458,0-18.844,1.396-28.155,4.915c-4.634,1.747-9.245,4.037-13.845,6.957c-1.615,1.029-3.229,2.087-4.842,3.279
		C-2.704,268.629,0.75,277.034,5.921,277.034z"/>
	<path fill="#23472F" d="M168.059,149.215c-0.7,2.61-1.523,5.027-2.556,7.165c-1.976,4.308-4.274,7.593-5.959,9.721
		c-0.851,1.065-1.543,1.833-2.006,2.33c-0.432,0.438-0.665,0.659-0.665,0.659l-0.094,0.098c-0.249,0.259-0.49,0.533-0.708,0.828
		c-2.583,3.463-1.876,8.357,1.582,10.947c3.463,2.591,8.359,1.879,10.948-1.573c0,0,0.351-0.469,1.001-1.336
		c0.584-0.827,1.391-2.036,2.313-3.591c1.828-3.099,4.164-7.657,5.941-13.526c0.924-2.915,1.584-6.194,2.011-9.69
		c0.226-1.742,0.226-3.578,0.33-5.414c-0.104-1.855-0.117-3.75-0.365-5.646c-0.519-3.795-1.387-7.67-2.898-11.321
		c-1.457-3.841-3.168-6.778-4.758-10.092c-1.609-3.229-3.209-6.459-4.788-9.641c-1.376-3.177-3.019-6.281-4.05-9.363
		c-0.548-1.552-1.086-3.074-1.607-4.563c-0.422-1.509-0.655-3.01-0.99-4.472c-0.851-2.923-0.556-5.756-0.751-8.396
		c-0.063-2.645,0.612-5.016,0.825-7.184c0.167-2.198,1.063-3.92,1.445-5.448c0.952-3.018,1.508-4.743,1.508-4.743
		s-0.776,1.638-2.133,4.504c-0.587,1.471-1.734,3.12-2.209,5.319c-0.52,2.164-1.544,4.561-1.866,7.327
		c-0.179,2.761-0.874,5.841-0.412,9.036c0.137,1.603,0.183,3.291,0.417,4.973c0.343,1.651,0.692,3.338,1.046,5.056
		c0.67,3.474,1.891,6.794,2.882,10.315c1.152,3.39,2.315,6.827,3.483,10.271c1.102,3.39,2.519,6.986,3.151,9.952
		c0.822,3.072,1.053,6.171,1.063,9.11c-0.006,1.47-0.224,2.92-0.313,4.32C168.576,146.547,168.414,147.911,168.059,149.215z"/>
	<path fill="#23472F" d="M199.258,149.215c-0.699,2.61-1.521,5.027-2.555,7.165c-1.975,4.308-4.273,7.593-5.961,9.721
		c-0.849,1.065-1.544,1.833-2.006,2.33c-0.432,0.438-0.665,0.659-0.665,0.659l-0.092,0.098c-0.249,0.259-0.492,0.533-0.711,0.828
		c-2.58,3.463-1.874,8.357,1.584,10.947c3.464,2.591,8.356,1.879,10.946-1.573c0,0,0.353-0.469,1.001-1.336
		c0.584-0.827,1.393-2.036,2.315-3.591c1.828-3.099,4.164-7.657,5.941-13.526c0.924-2.915,1.584-6.194,2.011-9.69
		c0.223-1.742,0.223-3.578,0.33-5.414c-0.107-1.855-0.117-3.75-0.366-5.646c-0.518-3.795-1.386-7.67-2.899-11.321
		c-1.457-3.841-3.168-6.778-4.758-10.092c-1.607-3.229-3.209-6.459-4.789-9.641c-1.376-3.177-3.016-6.281-4.047-9.363
		c-0.548-1.552-1.086-3.074-1.607-4.563c-0.424-1.509-0.655-3.01-0.99-4.472c-0.854-2.923-0.561-5.756-0.752-8.396
		c-0.065-2.645,0.607-5.016,0.823-7.184c0.167-2.198,1.064-3.92,1.445-5.448c0.954-3.018,1.508-4.743,1.508-4.743
		s-0.774,1.638-2.133,4.504c-0.589,1.471-1.734,3.12-2.209,5.319c-0.518,2.164-1.544,4.561-1.868,7.327
		c-0.178,2.761-0.874,5.841-0.41,9.036c0.138,1.603,0.184,3.291,0.417,4.973c0.345,1.651,0.693,3.338,1.046,5.056
		c0.67,3.474,1.895,6.794,2.885,10.315c1.152,3.39,2.313,6.827,3.481,10.271c1.104,3.39,2.521,6.986,3.153,9.952
		c0.822,3.072,1.051,6.171,1.063,9.11c-0.007,1.47-0.225,2.92-0.312,4.32C199.775,146.547,199.613,147.911,199.258,149.215z"/>
	<path fill="#23472F" d="M235.656,149.215c-0.7,2.61-1.522,5.027-2.554,7.165c-1.978,4.308-4.275,7.593-5.962,9.721
		c-0.85,1.065-1.544,1.833-2.008,2.33c-0.432,0.438-0.665,0.659-0.665,0.659l-0.092,0.098c-0.248,0.259-0.492,0.533-0.71,0.828
		c-2.58,3.463-1.874,8.357,1.584,10.947c3.463,2.591,8.358,1.879,10.948-1.573c0,0,0.351-0.469,1-1.336
		c0.584-0.827,1.392-2.036,2.315-3.591c1.826-3.099,4.163-7.657,5.939-13.526c0.925-2.915,1.585-6.194,2.011-9.69
		c0.226-1.742,0.226-3.578,0.33-5.414c-0.104-1.855-0.114-3.75-0.363-5.646c-0.52-3.795-1.389-7.67-2.899-11.321
		c-1.458-3.841-3.169-6.778-4.759-10.092c-1.609-3.229-3.209-6.459-4.788-9.641c-1.376-3.177-3.019-6.281-4.047-9.363
		c-0.549-1.552-1.087-3.074-1.61-4.563c-0.421-1.509-0.654-3.01-0.99-4.472c-0.853-2.923-0.559-5.756-0.751-8.396
		c-0.064-2.645,0.609-5.016,0.822-7.184c0.168-2.198,1.066-3.92,1.447-5.448c0.955-3.018,1.509-4.743,1.509-4.743
		s-0.777,1.638-2.133,4.504c-0.59,1.471-1.737,3.12-2.209,5.319c-0.521,2.164-1.544,4.561-1.869,7.327
		c-0.178,2.761-0.873,5.841-0.411,9.036c0.137,1.603,0.183,3.291,0.416,4.973c0.346,1.651,0.696,3.338,1.046,5.056
		c0.671,3.474,1.896,6.794,2.885,10.315c1.152,3.39,2.315,6.827,3.483,10.271c1.103,3.39,2.519,6.986,3.153,9.952
		c0.821,3.072,1.052,6.171,1.062,9.11c-0.005,1.47-0.224,2.92-0.31,4.32C236.175,146.547,236.012,147.911,235.656,149.215z"/>
</g>
<g>
	<g>
		<path fill="#23472F" d="M74.244,28.636c-23.979,0-43.49,19.51-43.49,43.489s19.511,43.487,43.49,43.487
			c23.98,0,43.49-19.509,43.49-43.487C117.734,48.146,98.225,28.636,74.244,28.636z M74.244,100.02
			c-15.381,0-27.891-12.514-27.891-27.887c0-15.381,12.509-27.895,27.891-27.895c15.381,0,27.891,12.513,27.891,27.895
			C102.135,87.507,89.625,100.02,74.244,100.02z"/>
		<path fill="#23472F" d="M99.162,220.299c1.894,0.438,3.765,0.873,5.631,1.301c2.62,0.601,5.215,1.173,7.8,1.728v-64.05
			c0-18.636-15.161-33.799-33.799-33.799h-9.1c-18.636,0-33.799,15.163-33.799,33.799v54.382c2.554-0.366,5.159-0.609,7.8-0.763
			c1.965-0.111,3.936-0.214,5.949-0.214c0.62,0,1.229,0.041,1.851,0.051v-53.456c0-10.035,8.163-18.198,18.2-18.198h9.1
			c10.037,0,18.199,8.162,18.199,18.198v60.523C97.717,219.964,98.438,220.131,99.162,220.299z"/>
		<path fill="#23472F" d="M4.879,250.493c3.94-2.307,7.985-4.274,12.157-5.896c11.865-6.586,24.417-9.02,37.353-9.02
			c31.479,0,65.133,13.979,96.187,15.035c1.107,0.041,2.219,0.062,3.321,0.062c33.756,0,64.96-17.076,95.857-17.076
			c12.487,0,24.93,2.88,37.461,10.72c5.176,2.204,10.191,4.91,15.071,8.12c4.661-1.031,8.089-6.744,3.473-10.588
			c-18.707-15.584-37.216-20.643-56.045-20.643c-29.311,0-59.382,12.253-92.191,16.144c-3.852,0.457-7.691,0.66-11.53,0.66
			c-22.353,0-44.432-6.946-66.184-11.359c-9.503-1.93-18.948-3.347-28.317-3.521c-0.62-0.01-1.231-0.051-1.851-0.051
			c-1.985,0-3.971,0.065-5.949,0.192c-2.605,0.162-5.205,0.498-7.8,0.914c-11.135,1.787-22.168,5.981-33.1,14.046
			C-2.319,242.007,0.329,249.447,4.879,250.493z"/>
		<path fill="#23472F" d="M5.922,276.701c1.094,0,2.264-0.371,3.438-1.244c14.061-10.369,29.272-13.879,45.024-13.879
			c31.479,0,65.135,13.979,96.188,15.035c1.107,0.041,2.219,0.063,3.321,0.063c33.756,0,64.96-17.076,95.857-17.076
			c15.597,0,31.1,4.347,46.819,17.441c1.354,1.127,2.844,1.604,4.28,1.604c5.325,0,9.986-6.569,4.903-10.801
			c-2.15-1.792-4.301-3.407-6.441-4.932c-5.692-4.042-11.37-7.1-17.054-9.445c-10.812-4.474-21.627-6.266-32.55-6.266
			c-29.311,0-59.382,12.248-92.191,16.138c-3.852,0.457-7.691,0.66-11.53,0.66c-32.763,0-64.94-14.919-96.354-14.919
			c-9.458,0-18.844,1.396-28.155,4.915c-4.634,1.747-9.245,4.037-13.845,6.957c-1.615,1.029-3.229,2.087-4.842,3.279
			C-2.703,268.296,0.751,276.701,5.922,276.701z"/>
		<path fill="#23472F" d="M168.06,148.882c-0.7,2.61-1.523,5.027-2.556,7.165c-1.976,4.308-4.274,7.593-5.959,9.721
			c-0.851,1.065-1.543,1.833-2.006,2.33c-0.432,0.438-0.665,0.659-0.665,0.659l-0.094,0.098c-0.249,0.259-0.49,0.533-0.708,0.828
			c-2.583,3.463-1.876,8.357,1.582,10.947c3.463,2.591,8.359,1.879,10.948-1.573c0,0,0.351-0.469,1.001-1.336
			c0.584-0.827,1.391-2.036,2.313-3.591c1.828-3.099,4.164-7.657,5.941-13.526c0.924-2.915,1.584-6.194,2.011-9.69
			c0.226-1.742,0.226-3.578,0.33-5.414c-0.104-1.855-0.117-3.75-0.365-5.646c-0.519-3.795-1.387-7.67-2.898-11.321
			c-1.457-3.841-3.168-6.778-4.758-10.092c-1.609-3.229-3.209-6.459-4.788-9.641c-1.376-3.177-3.019-6.281-4.05-9.363
			c-0.548-1.552-1.086-3.074-1.607-4.563c-0.422-1.509-0.655-3.01-0.99-4.472c-0.851-2.923-0.556-5.756-0.751-8.396
			c-0.063-2.645,0.612-5.016,0.825-7.184c0.167-2.198,1.063-3.92,1.445-5.448c0.952-3.018,1.508-4.743,1.508-4.743
			s-0.776,1.638-2.133,4.504c-0.587,1.471-1.734,3.12-2.209,5.319c-0.52,2.164-1.544,4.561-1.866,7.327
			c-0.179,2.761-0.874,5.841-0.412,9.036c0.137,1.603,0.183,3.291,0.417,4.973c0.343,1.651,0.692,3.338,1.046,5.056
			c0.67,3.474,1.891,6.794,2.882,10.315c1.152,3.39,2.315,6.827,3.483,10.271c1.102,3.39,2.519,6.986,3.151,9.952
			c0.822,3.072,1.053,6.171,1.063,9.11c-0.006,1.47-0.224,2.92-0.313,4.32C168.577,146.214,168.415,147.578,168.06,148.882z"/>
		<path fill="#23472F" d="M199.259,148.882c-0.699,2.61-1.521,5.027-2.555,7.165c-1.975,4.308-4.273,7.593-5.961,9.721
			c-0.849,1.065-1.544,1.833-2.006,2.33c-0.432,0.438-0.665,0.659-0.665,0.659l-0.092,0.098c-0.249,0.259-0.492,0.533-0.711,0.828
			c-2.58,3.463-1.874,8.357,1.584,10.947c3.464,2.591,8.356,1.879,10.946-1.573c0,0,0.353-0.469,1.001-1.336
			c0.584-0.827,1.393-2.036,2.315-3.591c1.828-3.099,4.164-7.657,5.941-13.526c0.924-2.915,1.584-6.194,2.011-9.69
			c0.223-1.742,0.223-3.578,0.33-5.414c-0.107-1.855-0.117-3.75-0.366-5.646c-0.518-3.795-1.386-7.67-2.899-11.321
			c-1.457-3.841-3.168-6.778-4.758-10.092c-1.607-3.229-3.209-6.459-4.789-9.641c-1.376-3.177-3.016-6.281-4.047-9.363
			c-0.548-1.552-1.086-3.074-1.607-4.563c-0.424-1.509-0.655-3.01-0.99-4.472c-0.854-2.923-0.561-5.756-0.752-8.396
			c-0.065-2.645,0.607-5.016,0.823-7.184c0.167-2.198,1.064-3.92,1.445-5.448c0.954-3.018,1.508-4.743,1.508-4.743
			s-0.774,1.638-2.133,4.504c-0.589,1.471-1.734,3.12-2.209,5.319c-0.518,2.164-1.544,4.561-1.868,7.327
			c-0.178,2.761-0.874,5.841-0.41,9.036c0.138,1.603,0.184,3.291,0.417,4.973c0.345,1.651,0.693,3.338,1.046,5.056
			c0.67,3.474,1.895,6.794,2.885,10.315c1.152,3.39,2.313,6.827,3.481,10.271c1.104,3.39,2.521,6.986,3.153,9.952
			c0.822,3.072,1.051,6.171,1.063,9.11c-0.007,1.47-0.225,2.92-0.312,4.32C199.776,146.214,199.614,147.578,199.259,148.882z"/>
		<path fill="#23472F" d="M235.657,148.882c-0.7,2.61-1.522,5.027-2.554,7.165c-1.978,4.308-4.275,7.593-5.962,9.721
			c-0.85,1.065-1.544,1.833-2.008,2.33c-0.432,0.438-0.665,0.659-0.665,0.659l-0.092,0.098c-0.248,0.259-0.492,0.533-0.71,0.828
			c-2.58,3.463-1.874,8.357,1.584,10.947c3.463,2.591,8.358,1.879,10.948-1.573c0,0,0.351-0.469,1-1.336
			c0.584-0.827,1.392-2.036,2.315-3.591c1.826-3.099,4.163-7.657,5.939-13.526c0.925-2.915,1.585-6.194,2.011-9.69
			c0.226-1.742,0.226-3.578,0.33-5.414c-0.104-1.855-0.114-3.75-0.363-5.646c-0.52-3.795-1.389-7.67-2.899-11.321
			c-1.458-3.841-3.169-6.778-4.759-10.092c-1.609-3.229-3.209-6.459-4.788-9.641c-1.376-3.177-3.019-6.281-4.047-9.363
			c-0.549-1.552-1.087-3.074-1.61-4.563c-0.421-1.509-0.654-3.01-0.99-4.472c-0.853-2.923-0.559-5.756-0.751-8.396
			c-0.064-2.645,0.609-5.016,0.822-7.184c0.168-2.198,1.066-3.92,1.447-5.448c0.955-3.018,1.509-4.743,1.509-4.743
			s-0.777,1.638-2.133,4.504c-0.59,1.471-1.737,3.12-2.209,5.319c-0.521,2.164-1.544,4.561-1.869,7.327
			c-0.178,2.761-0.873,5.841-0.411,9.036c0.137,1.603,0.183,3.291,0.416,4.973c0.346,1.651,0.696,3.338,1.046,5.056
			c0.671,3.474,1.896,6.794,2.885,10.315c1.152,3.39,2.315,6.827,3.483,10.271c1.103,3.39,2.519,6.986,3.153,9.952
			c0.821,3.072,1.052,6.171,1.062,9.11c-0.005,1.47-0.224,2.92-0.31,4.32C236.176,146.214,236.013,147.578,235.657,148.882z"/>
	</g>
</g>
</svg>
