<?xml version="1.0" encoding="utf-8"?>
<!-- Generator: Adobe Illustrator 16.0.0, SVG Export Plug-In . SVG Version: 6.00 Build 0)  -->
<!DOCTYPE svg PUBLIC "-//W3C//DTD SVG 1.0//EN" "http://www.w3.org/TR/2001/REC-SVG-20010904/DTD/svg10.dtd">
<svg version="1.0" id="Capa_1" xmlns="http://www.w3.org/2000/svg" xmlns:xlink="http://www.w3.org/1999/xlink" x="0px" y="0px"
	 width="585px" height="560px" viewBox="0 0 585 560" enable-background="new 0 0 585 560" xml:space="preserve">
<path fill="#EABDAD" d="M584.736,425.404l-2.137-11.53c-1.361-7.366-7.796-12.715-15.298-12.715c-0.94,0-1.891,0.086-2.823,0.258
	l-43.488,7.989l19.693-13.166c5.161-3.449,7.771-9.62,6.646-15.742c-0.313-1.677-0.899-3.284-1.748-4.792l-5.96-10.553
	c-2.042-3.626-5.524-6.32-9.544-7.388c-1.969-0.524-4.026-0.643-6.035-0.381c2.193-12.104,3.324-24.465,3.324-37.048
	c0-5.584-3.358-10.39-8.154-12.522c6.269-14.904,6.695-31.97,0.5-47.598c-0.502-1.271-1.248-2.405-2.214-3.372
	c-0.958-0.958-2.079-1.698-3.351-2.209c-7.425-2.956-15.227-4.455-23.188-4.455c-1.019,0-2.032,0.026-3.043,0.074
	c-1.137-22.896-20.086-41.173-43.219-41.173c-3.046,0-6.018,0.323-8.885,0.928c1.991-11.922,0.817-24.395-3.824-36.104
	c-0.499-1.286-1.248-2.441-2.268-3.477c-0.979-0.98-2.129-1.736-3.403-2.242c-7.997-3.186-16.401-4.8-24.98-4.8
	c-12.924,0-25.286,3.634-35.959,10.389c-3.898-11.295-10.329-21.898-19.313-30.903c-2.631-2.637-6.131-4.089-9.855-4.089
	c-3.724,0-7.225,1.452-9.858,4.092l-39.718,39.808c-7.35-6.556-17.021-10.475-27.52-10.475c-2.383,0-4.787,0.209-7.148,0.62
	c-8.557,1.488-16.431,5.678-22.467,11.812c-7.739-3.735-16.606-5.01-25.128-3.526c-1.875,0.325-3.693,0.785-5.459,1.346v-30.676
	c0-21.125-16.979-38.342-37.98-38.703V95.681c6.43-1.112,11.338-6.716,11.338-13.457V42.806c0-7.538-6.133-13.672-13.672-13.672
	H91.889c-7.539,0-13.672,6.134-13.672,13.672v39.418c0,6.741,4.909,12.345,11.338,13.457v17.396
	c-21.002,0.361-37.979,17.578-37.979,38.704v238.682c-0.062,0.297-0.119,0.593-0.166,0.888C35.128,406.13,25,426.703,25,449.448
	c0,44.895,39.402,81.418,87.835,81.418l328.329-0.096c11.206-0.005,21.745-4.93,28.914-13.512c6.981-8.354,9.949-19.205,8.24-29.906
	l65.576,11.785c0.908,0.163,1.839,0.246,2.761,0.246c3.271,0,6.403-1.004,9.058-2.9c3.411-2.437,5.721-6.209,6.336-10.347
	l1.776-11.919c0.256-1.707,0.228-3.428-0.084-5.112c-1.129-6.094-5.771-10.93-11.823-12.316l-23.114-5.303l43.444-7.979
	c4.098-0.754,7.652-3.054,10.01-6.479C584.611,433.612,585.491,429.485,584.736,425.404z"/>
<g>
	<g>
		<path fill="#23472F" d="M241.523,217.843c-4.717-5.164-11.435-8.188-18.426-8.296c-14.064-0.181-25.701,11.032-25.938,25.086
			c-0.077,4.53,3.534,8.265,8.063,8.341c0.047,0.001,0.094,0.001,0.143,0.001c4.466,0,8.123-3.582,8.199-8.064
			c0.084-5.02,4.209-9.047,9.276-8.959c2.53,0.04,4.863,1.09,6.57,2.958c3.056,3.346,8.246,3.579,11.589,0.522
			C244.344,226.377,244.579,221.188,241.523,217.843z"/>
	</g>
</g>
<g>
	<g>
		<path fill="#23472F" d="M285.166,244.577c-2.515-5.911-7.409-10.575-13.433-12.8c-12.112-4.468-25.614,1.741-30.103,13.84
			c-1.576,4.248,0.59,8.969,4.838,10.545c0.94,0.349,1.903,0.514,2.852,0.514c3.333,0,6.466-2.045,7.691-5.353
			c1.349-3.635,5.409-5.493,9.04-4.153c1.825,0.674,3.252,2.034,4.015,3.827c1.772,4.169,6.593,6.112,10.76,4.339
			C284.996,253.564,286.938,248.746,285.166,244.577z"/>
	</g>
</g>
<g>
	<g>
		<path fill="#23472F" d="M338.037,171.925c-3.207-3.201-8.401-3.194-11.602,0.013l-7.732,7.748c-3.2,3.206-3.194,8.4,0.013,11.601
			c1.601,1.599,3.696,2.396,5.793,2.396c2.104,0,4.205-0.803,5.808-2.408l7.732-7.748
			C341.249,180.319,341.243,175.124,338.037,171.925z"/>
	</g>
</g>
<g>
	<g>
		<path fill="#23472F" d="M287.001,277.826h-10.933c-4.531,0-8.203,3.673-8.203,8.202c0,4.53,3.672,8.203,8.203,8.203h10.933
			c4.532,0,8.203-3.673,8.203-8.203C295.204,281.499,291.533,277.826,287.001,277.826z"/>
	</g>
</g>
<g>
	<g>
		<path fill="#23472F" d="M370.83,277.826h-10.934c-4.531,0-8.203,3.673-8.203,8.202c0,4.53,3.673,8.203,8.203,8.203h10.934
			c4.53,0,8.203-3.673,8.203-8.203C379.033,281.499,375.36,277.826,370.83,277.826z"/>
	</g>
</g>
<g>
	<g>
		<path fill="#23472F" d="M584.736,425.737l-2.137-11.53c-1.361-7.366-7.796-12.715-15.298-12.715c-0.94,0-1.891,0.086-2.823,0.258
			l-43.488,7.989l19.693-13.166c5.161-3.449,7.771-9.62,6.646-15.742c-0.313-1.677-0.899-3.284-1.748-4.792l-5.96-10.553
			c-2.042-3.626-5.524-6.32-9.544-7.388c-1.969-0.524-4.026-0.643-6.035-0.381c2.193-12.104,3.324-24.465,3.324-37.048
			c0-5.584-3.358-10.39-8.154-12.522c6.269-14.904,6.695-31.97,0.5-47.598c-0.502-1.271-1.248-2.405-2.214-3.372
			c-0.958-0.958-2.079-1.698-3.351-2.209c-7.425-2.956-15.227-4.455-23.188-4.455c-1.019,0-2.032,0.026-3.043,0.074
			c-1.137-22.896-20.086-41.173-43.219-41.173c-3.046,0-6.018,0.323-8.885,0.928c1.991-11.922,0.817-24.395-3.824-36.104
			c-0.499-1.286-1.248-2.441-2.268-3.477c-0.979-0.98-2.129-1.736-3.403-2.242c-7.997-3.186-16.401-4.8-24.98-4.8
			c-12.924,0-25.286,3.634-35.959,10.389c-3.898-11.295-10.329-21.898-19.313-30.903c-2.631-2.637-6.131-4.089-9.855-4.089
			c-3.724,0-7.225,1.452-9.858,4.092l-39.718,39.808c-7.35-6.556-17.021-10.475-27.52-10.475c-2.383,0-4.787,0.209-7.148,0.62
			c-8.557,1.488-16.431,5.678-22.467,11.812c-7.739-3.735-16.606-5.01-25.128-3.526c-1.875,0.325-3.693,0.785-5.459,1.346v-30.676
			c0-21.125-16.979-38.342-37.98-38.703V96.014c6.43-1.112,11.338-6.716,11.338-13.457V43.139c0-7.538-6.133-13.672-13.672-13.672
			H91.889c-7.539,0-13.672,6.134-13.672,13.672v39.418c0,6.741,4.909,12.345,11.338,13.457v17.396
			c-21.002,0.361-37.979,17.578-37.979,38.704V391.53C35.196,406.321,25,426.958,25,449.781c0,44.895,39.402,81.418,87.835,81.418
			l328.329-0.096c11.206-0.005,21.745-4.93,28.914-13.512c6.981-8.354,9.949-19.205,8.24-29.906l65.576,11.785
			c0.908,0.163,1.839,0.246,2.761,0.246c3.271,0,6.403-1.004,9.058-2.9c3.411-2.437,5.721-6.209,6.336-10.347l1.776-11.919
			c0.256-1.707,0.228-3.428-0.084-5.112c-1.129-6.094-5.771-10.93-11.823-12.316l-23.114-5.303l43.444-7.979
			c4.098-0.754,7.652-3.054,10.01-6.479C584.611,433.945,585.491,429.818,584.736,425.737z M490.959,266.917
			c4.938,0,9.793,0.782,14.461,2.323c4.172,12.701,2.609,26.403-3.922,37.722H479.4l7.051-7.067c3.2-3.207,3.193-8.4-0.014-11.602
			c-3.208-3.2-8.402-3.194-11.602,0.013l-3.729,3.74c-1.749-5.759-4.804-10.915-8.817-15.146
			C470.432,270.437,480.426,266.917,490.959,266.917z M444.697,225.819c14.814,0,26.867,12.088,26.867,26.946
			c0,0.275-0.015,0.548-0.021,0.821c-8.646,2.813-16.618,7.51-23.415,13.89c-1.082-0.41-2.179-0.791-3.306-1.103
			c-2.399-12.963-11.137-23.354-22.676-28.206C426.938,230.747,435.248,225.819,444.697,225.819z M401.336,180.124
			c5.571,0,11.047,0.9,16.323,2.684c4.24,12.608,3.374,26.152-2.029,37.884c-4.44,4.046-8.045,9.001-10.509,14.57
			c-1.464,0.085-2.929,0.247-4.376,0.499c-6.428,1.118-12.421,3.907-17.438,7.952c-1.71-3.128-3.805-6.016-6.205-8.613
			l18.813-18.854c3.2-3.207,3.194-8.401-0.014-11.602c-3.207-3.2-8.401-3.194-11.603,0.014l-20.561,20.606
			c-3.912-1.85-8.142-3.136-12.584-3.737c1.919-9.789,6.669-19.013,14.017-26.378C374.839,185.46,387.683,180.124,401.336,180.124z
			 M338.479,306.962h-7.109c-1.198-3.048-4.158-5.207-7.631-5.207c-3.474,0-6.435,2.16-7.632,5.207h-8.364
			c1.941-3.163,1.55-7.354-1.192-10.091c-3.207-3.2-8.4-3.194-11.602,0.012l-7.731,7.748c-0.693,0.695-1.229,1.488-1.621,2.331
			H268.9c-6.253-9.595-10.068-20.921-10.521-33.105H388.52c-0.451,12.186-4.268,23.512-10.521,33.105h-17.375
			c-0.391-0.843-0.927-1.638-1.62-2.332l-7.73-7.748c-3.201-3.205-8.394-3.214-11.601-0.013
			C336.928,299.606,336.535,303.798,338.479,306.962z M319.4,257.45c3.092-11.459,13.545-19.915,25.933-19.915
			c12.389,0,22.842,8.457,25.934,19.915H319.4L319.4,257.45z M336.175,156.584c7.803,8.433,12.962,18.444,15.492,28.969
			c-4.188,4.552-7.667,9.58-10.411,14.933c-1.246-0.764-2.706-1.211-4.272-1.211h-10.933c-4.529,0-8.202,3.673-8.202,8.203
			s3.673,8.203,8.202,8.203h9.59c-0.54,2.265-0.959,4.558-1.263,6.867c-3.257,0.854-6.368,2.074-9.279,3.625
			c-5.468-9.437-14.521-16.468-25.249-19.288c-0.003-0.023-0.008-0.046-0.012-0.069c-0.644-3.712-1.766-7.233-3.296-10.508
			L336.175,156.584z M187.887,230.605c-0.48-1.346-0.846-2.726-1.085-4.109c-2.353-13.563,6.791-26.522,20.378-28.889
			c1.434-0.25,2.889-0.377,4.326-0.377c5.404,0,10.569,1.726,14.934,4.984c1.807,1.35,4.09,1.896,6.313,1.511
			c2.223-0.386,4.188-1.669,5.436-3.549c3.851-5.81,9.742-9.664,16.59-10.855c1.437-0.251,2.896-0.377,4.336-0.377
			c12.152,0,22.481,8.695,24.559,20.679c0.238,1.373,0.361,2.803,0.363,4.252c0.008,4.246,3.255,7.786,7.484,8.156
			c9.172,0.808,16.979,6.578,20.599,14.709c-4.847,5.815-8.204,12.916-9.479,20.712h-46.78c-5.817,0-10.809,3.591-12.89,8.673
			c-10.292-7.011-22.422-10.787-35.133-10.787c-7.964,0-15.766,1.5-23.193,4.457c-1.261,0.504-2.388,1.246-3.348,2.206
			c-0.973,0.974-1.72,2.113-2.21,3.366c-1.888,4.761-3.146,9.654-3.827,14.579c-2.939-3.347-5.012-7.509-5.82-12.179
			c-1.93-11.13,3.896-22.212,14.164-26.95C187.458,239.036,189.318,234.605,187.887,230.605z M212.341,304.719l2.238,2.243h-19.702
			c-4.423-10.262-5.095-21.941-1.504-32.896c4.674-1.543,9.527-2.323,14.461-2.323c12.359,0,23.988,4.83,32.739,13.602
			c1.163,1.167,2.247,2.391,3.266,3.653c1.39,6.294,3.526,12.306,6.278,17.965h-12.363l-13.8-13.831
			c-3.201-3.206-8.396-3.215-11.601-0.014C209.146,296.318,209.141,301.512,212.341,304.719z M177.407,306.962h-29.243
			c1.304-7.946,6.083-14.72,12.718-18.714c3.929,5.262,9.054,9.517,14.96,12.397C176.26,302.776,176.771,304.885,177.407,306.962z
			 M94.621,45.873h61.24v33.949h-61.24V45.873z M144.523,96.228v17.165H105.96V96.228H144.523z M67.981,185.38h53.269
			c4.532,0,8.203-3.673,8.203-8.203s-3.671-8.203-8.203-8.203H67.981v-16.86c0-12.305,9.979-22.314,22.246-22.314h70.03
			c12.269,0,22.247,10.011,22.247,22.314v16.86h-15.316c-4.531,0-8.203,3.673-8.203,8.203s3.672,8.203,8.203,8.203h15.316v7.281
			c-9.398,9.215-14.279,22.729-11.87,36.629c0.005,0.026,0.011,0.056,0.015,0.084c-13.16,9.028-20.172,25.081-17.379,41.194
			c0.162,0.94,0.367,1.865,0.59,2.781c-4.098,2.26-7.778,5.178-10.933,8.592H67.981V185.38z M67.98,298.348L67.98,298.348h65.42
			c-0.871,2.765-1.484,5.643-1.784,8.614h-1.384c-7.549,0-13.692,6.147-13.692,13.705c0,13.024,1.211,25.812,3.558,38.321
			c-2.357-0.188-4.774-0.291-7.233-0.291c-9.92,0-19.373,1.574-26.612,4.434c-11.074,4.373-14.136,10.582-14.804,14.879
			c-1.174,0.584-2.327,1.2-3.468,1.832V298.348L67.98,298.348z M171.854,399.119c2.955,2.363,4.761,4.372,5.808,5.821
			c-0.099,0.002-0.201,0.003-0.306,0.003c-4.643,0-12.984-1.872-22.471-7.123c-3.531-1.956-6.785-4.167-9.41-6.391
			c-3.061-2.593-7.548-2.591-10.605,0.001c-2.625,2.227-5.877,4.436-9.406,6.388c-9.488,5.253-17.83,7.125-22.472,7.125
			c-0.106,0-0.208-0.001-0.308-0.002c1.046-1.449,2.852-3.46,5.807-5.824c2.583-2.066,3.671-5.483,2.76-8.664
			c-0.912-3.181-3.645-5.503-6.931-5.888c-8.005-0.938-13.067-2.976-15.437-4.459c2.969-1.85,10.477-5.003,23.987-5.003
			c11.189,0,19.367,2.353,23.289,4.556c2.494,1.399,5.537,1.399,8.031,0.001c3.924-2.202,12.104-4.556,23.291-4.556
			c13.512,0,21.019,3.154,23.986,5.003c-2.369,1.484-7.432,3.521-15.439,4.459c-3.286,0.387-6.02,2.707-6.93,5.889
			C168.182,393.637,169.27,397.054,171.854,399.119z M155.443,498.964l0.283,1.52c0.976,5.27,3.032,10.104,5.906,14.31h-48.798
			c-39.386,0-71.429-29.163-71.429-65.013c0-24.499,14.971-45.865,37.017-56.945c2.532,1.89,5.688,3.52,9.434,4.835
			c-1.485,2.535-2.52,5.264-2.764,8.107c-0.324,3.782,0.833,7.374,3.261,10.115c3.208,3.622,8.132,5.459,14.636,5.459
			c8.667,0,20.037-3.432,30.418-9.178c2.39-1.322,4.648-2.72,6.765-4.179c2.114,1.457,4.374,2.854,6.765,4.18
			c10.379,5.745,21.752,9.176,30.418,9.177h0.002c6.5,0,11.425-1.837,14.632-5.458c2.429-2.741,3.587-6.333,3.263-10.116
			c-0.244-2.845-1.279-5.572-2.764-8.107c3.744-1.316,6.902-2.946,9.435-4.835c17.483,8.786,30.511,24.046,35.156,42.205
			l-58.019,22.04C162.078,463.531,152.146,481.147,155.443,498.964z M457.486,507.073c-4.044,4.845-9.997,7.621-16.33,7.624
			l-8.61,0.003l-5.379-29.044c-0.826-4.455-5.104-7.399-9.561-6.571c-4.454,0.823-7.396,5.104-6.572,9.559l4.828,26.063
			l-28.227,0.012L384,495.074c-0.826-4.455-5.104-7.396-9.561-6.571c-4.453,0.823-7.396,5.104-6.572,9.56l3.085,16.66l-65.652,0.023
			l-4.94-26.674c-0.827-4.455-5.104-7.396-9.562-6.57c-4.455,0.823-7.396,5.104-6.572,9.561l4.39,23.691l-95.86,0.036
			c-0.002,0-0.004,0-0.007,0c-10.25,0-19.035-7.272-20.893-17.299l-0.282-1.521c-1.854-10.015,3.743-19.92,13.311-23.557
			l32.24-12.248l2.401,12.965c0.732,3.948,4.18,6.71,8.057,6.71c0.497,0,1-0.046,1.505-0.14c4.454-0.826,7.396-5.105,6.57-9.561
			l-2.946-15.896l47.857-18.181c4.233-1.608,6.363-6.347,4.755-10.582s-6.354-6.364-10.581-4.755l-22.271,8.46
			c-6.247-22.119-22.297-40.596-43.579-51.181c-0.668-4.298-3.729-10.507-14.804-14.88c-7.239-2.857-16.69-4.433-26.612-4.433
			c-6.826,0-13.347,0.754-19.103,2.126v-4.954c0-4.53-3.671-8.203-8.203-8.203c-1.915,0-3.671,0.66-5.067,1.762
			c-1.295-8.558-2.019-17.247-2.139-26.062h267.188c4.531,0,8.203-3.673,8.203-8.203c0-4.529-3.672-8.203-8.203-8.203h-3.356
			c5.225-10.758,8.175-22.819,8.175-35.566c0-7.237-5.537-13.199-12.595-13.877c3.072-2.896,6.907-4.852,11.182-5.595
			c1.252-0.219,2.523-0.328,3.779-0.328c10.591,0,19.59,7.576,21.397,18.013c0.209,1.208,0.315,2.455,0.316,3.708
			c0.006,4.248,3.254,7.789,7.485,8.161c9.804,0.86,17.824,8.233,19.505,17.929c0.446,2.578,0.391,5.122-0.057,7.557h-8.803
			c-4.53,0-8.202,3.674-8.202,8.203c0,4.53,3.672,8.203,8.202,8.203h63.758c-0.203,15.048-2.143,29.746-5.758,44.008l-44.456,26.243
			c-2.719-9.463-9.037-17.49-17.745-22.364c-9.767-5.465-21.372-6.318-31.84-2.344l-91.559,34.783
			c-4.236,1.609-6.364,6.348-4.756,10.582c1.608,4.236,6.352,6.362,10.581,4.756l12.063-4.582l3.745,20.221
			c0.731,3.949,4.179,6.711,8.056,6.711c0.496,0,1-0.046,1.505-0.139c4.454-0.825,7.396-5.104,6.572-9.56l-4.289-23.154
			l63.906-24.278c5.922-2.249,12.482-1.767,18.002,1.323c5.511,3.084,9.328,8.399,10.475,14.581l16.596,89.594
			C463.184,495.926,461.524,502.24,457.486,507.073z M486.756,442.864c-3.827,0.703-6.633,3.997-6.72,7.889
			c-0.085,3.891,2.575,7.306,6.367,8.175l61.073,14.009l-1.524,10.236l-70.803-12.725l-11.067-59.756l61.67-36.404l5.137,9.098
			l-52.016,34.771c-3.234,2.162-4.506,6.299-3.042,9.904c1.462,3.604,5.258,5.688,9.083,4.984l81.71-15.011l1.82,9.821
			L486.756,442.864z"/>
	</g>
</g>
</svg>
