<?xml version="1.0" encoding="utf-8"?>
<!-- Generator: Adobe Illustrator 16.0.0, SVG Export Plug-In . SVG Version: 6.00 Build 0)  -->
<!DOCTYPE svg PUBLIC "-//W3C//DTD SVG 1.0//EN" "http://www.w3.org/TR/2001/REC-SVG-20010904/DTD/svg10.dtd">
<svg version="1.0" id="Capa_1" xmlns="http://www.w3.org/2000/svg" xmlns:xlink="http://www.w3.org/1999/xlink" x="0px" y="0px"
	 width="578px" height="560px" viewBox="0 0 578 560" enable-background="new 0 0 578 560" xml:space="preserve">
<path fill="#F4F195" d="M563.7,98.998c6.061-13.239,7.791-27.98,5.003-42.634c-5.266-27.673-27.396-49.804-55.071-55.068
	c-14.65-2.789-29.395-1.059-42.631,5.003c-5.186,2.374-10.463,4.183-15.746,5.454c-12.669-0.3-25.339-0.623-38.007-0.841
	c-95.524-29.054-210.122,3.583-295.342,83.311c-10.169,9.006-19.596,18.9-28.267,29.476C21.495,207.676-6.95,316.528,21.081,407.827
	c5.062,16.49,3.363,35.373-4.785,53.177c-6.059,13.235-7.789,27.975-5.003,42.623c5.263,27.676,27.392,49.808,55.066,55.073
	c4.552,0.867,9.111,1.3,13.632,1.3c10.034,0,19.878-2.12,29.006-6.302c17.797-8.146,36.679-9.846,53.17-4.783
	c99.04,30.412,218.726-5.638,304.916-91.828c86.192-86.191,122.237-205.879,91.83-304.916
	C553.854,135.681,555.553,116.797,563.7,98.998z"/>
<g>
	<path fill="#23472F" d="M562.7,97.998c6.061-13.239,7.791-27.98,5.003-42.634l0,0c-5.266-27.673-27.396-49.804-55.071-55.068
		c-14.65-2.789-29.395-1.059-42.631,5.003c-17.799,8.147-36.683,9.845-53.172,4.784c-99.039-30.406-218.726,5.64-304.917,91.829
		C25.721,188.104-10.325,307.791,20.081,406.827c5.062,16.49,3.362,35.373-4.785,53.177c-6.059,13.235-7.789,27.975-5.003,42.623
		c5.264,27.676,27.393,49.808,55.066,55.073c4.552,0.867,9.111,1.3,13.632,1.3c10.034,0,19.878-2.12,29.006-6.302
		c17.797-8.146,36.679-9.846,53.17-4.783c99.04,30.412,218.726-5.638,304.916-91.828c86.192-86.191,122.237-205.879,91.83-304.916
		C552.854,134.681,554.553,115.797,562.7,97.998z M541.188,156.306c28.53,92.924-5.807,205.735-87.475,287.406
		c-81.669,81.67-194.484,116.001-287.406,87.476c-20.6-6.323-43.891-4.336-65.591,5.6c-9.922,4.544-21.017,5.829-32.083,3.724
		c-20.679-3.937-37.213-20.473-41.146-41.151c-2.104-11.063-0.816-22.153,3.724-32.071c9.935-21.706,11.924-45.002,5.603-65.595
		c-28.529-92.924,5.807-205.735,87.476-287.404c62.588-62.588,143.463-97.375,219.664-97.375c23.23,0,46.031,3.233,67.742,9.898
		c20.596,6.323,43.89,4.334,65.593-5.601c9.92-4.54,21.012-5.829,32.077-3.725c20.678,3.937,37.215,20.473,41.149,41.15l0,0
		c2.105,11.065,0.817,22.157-3.724,32.077C536.854,112.417,534.864,135.712,541.188,156.306z"/>
	<path fill="#23472F" d="M85.48,209.902c-4.334-2.14-9.582-0.361-11.721,3.974c-30.34,61.452-37.521,126.329-20.219,182.682
		c1.156,3.764,4.619,6.185,8.361,6.185c0.852,0,1.717-0.125,2.572-0.388c4.619-1.417,7.213-6.313,5.795-10.933
		c-15.984-52.066-9.172-112.368,19.183-169.801C91.592,217.287,89.813,212.04,85.48,209.902z"/>
	<path fill="#23472F" d="M513.748,192.846c0.671,4.319,4.396,7.406,8.635,7.406c0.447,0,0.9-0.034,1.356-0.104
		c4.774-0.743,8.044-5.217,7.301-9.992c-1.522-9.786-3.737-19.445-6.581-28.713c-1.419-4.62-6.316-7.212-10.934-5.796
		c-4.62,1.417-7.216,6.313-5.797,10.935C510.329,175.047,512.354,183.884,513.748,192.846z"/>
	<path fill="#23472F" d="M524.963,217.749c-0.029,0-0.058,0-0.087,0c-4.792,0-8.701,3.859-8.748,8.663
		c-0.396,40.182-11.995,82.164-33.545,121.409c-2.326,4.236-0.777,9.557,3.459,11.882c1.337,0.733,2.78,1.082,4.203,1.082
		c3.09,0,6.086-1.641,7.679-4.541c22.936-41.768,35.281-86.603,35.704-129.66C533.674,221.752,529.795,217.796,524.963,217.749z"/>
</g>
</svg>
